<?xml version="1.0" encoding="UTF-8"?>
<svg version="1.1" xmlns="http://www.w3.org/2000/svg" width="500" height="500">
<path d="M0 0 C165 0 330 0 500 0 C500 165 500 330 500 500 C335 500 170 500 0 500 C0 335 0 170 0 0 Z " fill="#000000" transform="translate(0,0)"/>
<path d="M0 0 C1.28076416 0.01256836 2.56152832 0.02513672 3.88110352 0.03808594 C16.5185227 0.34077861 28.46578294 2.53228842 40.6875 5.625 C41.43112793 5.80611328 42.17475586 5.98722656 42.94091797 6.17382812 C50.97191673 8.1500932 58.29193721 10.956335 65.6875 14.625 C66.97107535 15.24276715 68.25495007 15.85991252 69.5390625 16.4765625 C103.36088063 32.86710499 130.34206757 58.25022827 147.6875 91.625 C148.01621094 92.25212891 148.34492188 92.87925781 148.68359375 93.52539062 C155.65283192 106.89009435 160.24914758 119.985417 163.6875 134.625 C163.85701172 135.32560547 164.02652344 136.02621094 164.20117188 136.74804688 C173.11508352 174.95580925 165.46189527 220.96645485 145.6875 254.625 C144.67353878 256.61795826 143.6668294 258.61479754 142.6875 260.625 C142.0275 260.625 141.3675 260.625 140.6875 260.625 C140.29691406 261.70974609 140.29691406 261.70974609 139.8984375 262.81640625 C136.49358926 270.7134575 130.11225098 277.43974578 124.5625 283.9375 C124.07217285 284.51169678 123.5818457 285.08589355 123.07666016 285.67749023 C119.76881394 289.49827948 116.37836566 293.16938782 112.6875 296.625 C112.0275 296.625 111.3675 296.625 110.6875 296.625 C110.6875 297.285 110.6875 297.945 110.6875 298.625 C108.66313392 300.40049349 106.6342145 302.05276472 104.5 303.6875 C103.87085693 304.17484619 103.24171387 304.66219238 102.59350586 305.16430664 C79.85736941 322.625 79.85736941 322.625 74.6875 322.625 C74.6875 323.285 74.6875 323.945 74.6875 324.625 C69.43882042 326.97524208 64.18317257 329.30865804 58.92138672 331.62939453 C57.1483891 332.41958954 55.38653342 333.23477616 53.62890625 334.05859375 C46.97399345 337.07456463 40.10698234 339.00383553 33.0625 340.875 C32.09610596 341.13361816 31.12971191 341.39223633 30.1340332 341.65869141 C24.63984781 343.06447512 19.33061996 344.00738763 13.67041016 344.40527344 C11.61449323 344.51734325 11.61449323 344.51734325 9.6875 345.625 C7.37957513 345.73561828 5.06834762 345.77951354 2.7578125 345.79296875 C2.05984558 345.79720352 1.36187866 345.80143829 0.64276123 345.80580139 C-1.63405276 345.81573989 -3.91066803 345.81571326 -6.1875 345.8125 C-6.96059509 345.81189575 -7.73369019 345.8112915 -8.5302124 345.81066895 C-46.59497445 345.72953905 -87.74713668 336.53524525 -117.3125 310.625 C-117.3125 309.965 -117.3125 309.305 -117.3125 308.625 C-118.30830078 308.35042969 -118.30830078 308.35042969 -119.32421875 308.0703125 C-123.65119004 305.977529 -126.69268057 302.82165119 -130.125 299.5 C-130.83914062 298.81711914 -131.55328125 298.13423828 -132.2890625 297.43066406 C-133.68895689 296.08899197 -135.08572871 294.74405242 -136.47900391 293.39550781 C-137.92575499 291.9984587 -139.38788848 290.61733952 -140.85546875 289.2421875 C-145.33462699 284.96865928 -148.87948636 280.28213587 -152.43359375 275.21875 C-154.02535215 273.02139536 -155.66457182 271.05283644 -157.5 269.0625 C-160.4747499 265.70885241 -162.25423091 262.01225686 -164.15625 257.9765625 C-165.35196413 255.41542364 -165.35196413 255.41542364 -167.4375 252.4375 C-169.11174552 249.92613173 -170.34380244 247.50887112 -171.46875 244.71484375 C-172.1074252 243.1329399 -172.78021012 241.56475173 -173.46875 240.00390625 C-178.98827396 227.33256008 -182.19231231 214.23962411 -184.3125 200.625 C-184.48386475 199.55870361 -184.65522949 198.49240723 -184.83178711 197.39379883 C-186.1745783 188.3549746 -186.65517643 179.544579 -186.62817383 170.41870117 C-186.62500647 168.19204955 -186.64862443 165.96672422 -186.67382812 163.74023438 C-186.73570958 149.95338851 -184.33497927 137.10072328 -180.4375 123.875 C-180.04570557 122.53272339 -180.04570557 122.53272339 -179.64599609 121.16333008 C-175.09461902 105.89834935 -168.16384664 90.90201995 -159.3125 77.625 C-160.93792193 78.26977069 -162.56282424 78.91585143 -164.1875 79.5625 C-165.54488281 80.10197266 -165.54488281 80.10197266 -166.9296875 80.65234375 C-169.27387667 81.57401262 -169.27387667 81.57401262 -171.3125 82.625 C-174.37161811 83.04570387 -177.25881074 83.10577115 -180.3125 82.625 C-183.40882649 80.18746638 -185.13550487 77.89049269 -187.3125 74.625 C-187.64398097 70.73009857 -187.65946975 67.82541329 -185.3125 64.625 C-181.09973116 61.49035099 -177.19225285 59.72292842 -172.1875 58.1875 C-164.4781074 55.74880489 -157.04817143 52.80524933 -149.69921875 49.421875 C-144.20374928 46.9946381 -138.28838305 44.83223509 -132.3125 46.625 C-125.23494077 51.63485531 -124.11163112 58.80563264 -122.125 66.875 C-121.4656486 69.42208348 -120.8055071 71.96896258 -120.14453125 74.515625 C-119.83668701 75.73032471 -119.52884277 76.94502441 -119.21166992 78.1965332 C-118.21422894 81.9997001 -117.08666337 85.74548671 -115.87744141 89.48608398 C-114.89563985 93.20326785 -114.6236717 96.83644432 -115.3125 100.625 C-117.37088525 103.96100367 -119.0518264 105.4512176 -122.3125 107.625 C-129.21637125 108.40446933 -129.21637125 108.40446933 -133.125 105.625 C-136.67553239 100.75569843 -138.88778883 95.76141418 -138.3125 89.625 C-138.9725 89.625 -139.6325 89.625 -140.3125 89.625 C-140.56257813 90.28113281 -140.81265625 90.93726563 -141.0703125 91.61328125 C-142.63860053 95.41563997 -144.413648 99.10268075 -146.1875 102.8125 C-149.11974087 109.01029531 -151.94398447 115.18622038 -154.3125 121.625 C-154.72242188 122.63433594 -155.13234375 123.64367187 -155.5546875 124.68359375 C-161.64602747 140.8490729 -162.54937252 158.30229585 -162.625 175.4375 C-162.63055908 176.47946533 -162.63611816 177.52143066 -162.6418457 178.5949707 C-162.46718258 197.24212504 -157.94487714 217.11177032 -149.3125 233.625 C-148.68146512 234.94175273 -148.05542856 236.2609089 -147.43359375 237.58203125 C-143.47366972 245.91551495 -139.13933428 253.41866786 -133.3125 260.625 C-132.86938477 261.17349609 -132.42626953 261.72199219 -131.96972656 262.28710938 C-130.53247181 264.05498177 -129.08259956 265.81137139 -127.625 267.5625 C-127.17342529 268.10672607 -126.72185059 268.65095215 -126.2565918 269.21166992 C-123.51595983 272.4359724 -120.6409251 275.0304009 -117.3125 277.625 C-115.64190408 279.28772812 -113.97528319 280.95445888 -112.3125 282.625 C-89.68884777 302.29471914 -59.63859079 318.63955394 -29.1328125 320.44921875 C-27.3125 320.625 -27.3125 320.625 -25.3125 321.625 C17.87331035 324.5195501 58.48292626 310.74530748 91.171875 282.4765625 C93.71224692 280.22809667 96.20678056 277.9390461 98.6875 275.625 C99.5125 274.86574219 100.3375 274.10648437 101.1875 273.32421875 C124.95944325 250.62944168 141.0997969 214.93384778 141.8952179 182.18656921 C141.96717851 178.16604586 141.99087613 174.14610457 142 170.125 C142.00367584 169.33719147 142.00735168 168.54938293 142.01113892 167.73770142 C142.03196547 159.17665111 141.8575122 150.96164945 139.6875 142.625 C139.38769045 141.28552059 139.08944972 139.94568884 138.79296875 138.60546875 C134.48170156 120.79167963 127.42950616 104.16261374 117.1328125 88.95703125 C115.66073357 86.581812 114.64602327 84.24465339 113.6875 81.625 C113.0275 81.625 112.3675 81.625 111.6875 81.625 C110.49609375 80.2265625 110.49609375 80.2265625 109.125 78.25 C102.39536034 69.03331959 94.72943585 61.56093405 85.6875 54.625 C84.83542969 53.95726562 83.98335938 53.28953125 83.10546875 52.6015625 C57.94128094 33.51148899 30.32092763 24.81046253 -0.9675293 23.44628906 C-2.85918823 23.34912598 -2.85918823 23.34912598 -4.7890625 23.25 C-5.92424316 23.20101562 -7.05942383 23.15203125 -8.22900391 23.1015625 C-12.67920627 22.41377192 -16.59836691 20.28431042 -19.3125 16.625 C-19.81640625 14.1015625 -19.81640625 14.1015625 -19.875 11.25 C-19.93880859 9.84621094 -19.93880859 9.84621094 -20.00390625 8.4140625 C-19.21841952 5.24548891 -18.08836254 3.53762256 -15.45141602 1.58447266 C-10.61022156 -0.58718517 -5.20334925 -0.09640232 0 0 Z " fill="#0E75DE" transform="translate(270.3125,71.375)"/>
<path d="M0 0 C1.30614258 0.00499512 2.61228516 0.00999023 3.95800781 0.01513672 C18.68063461 0.27784665 33.43093395 2.33580469 45.4375 11.5 C46.04851562 11.89960938 46.65953125 12.29921875 47.2890625 12.7109375 C51.14177017 15.43156993 52.39730949 18.04903847 53.17578125 22.52734375 C53.26214844 23.17832031 53.34851563 23.82929688 53.4375 24.5 C53.623125 25.49 53.80875 26.48 54 27.5 C53.07191115 32.4498072 50.21742114 35.30209717 46.4375 38.5 C39.01907476 43.15386101 30.8221063 46.09779875 22.4375 48.5 C21.68726563 48.726875 20.93703125 48.95375 20.1640625 49.1875 C0.78709639 54.08273354 -20.5645447 50.02082758 -38.5625 42.5 C-38.5625 41.84 -38.5625 41.18 -38.5625 40.5 C-39.284375 40.438125 -40.00625 40.37625 -40.75 40.3125 C-45.5290419 38.9318879 -47.84350067 35.39389106 -50.875 31.625 C-52.92555291 27.82767979 -53.17123866 25.76117065 -52.5625 21.5 C-48.08646865 12.5479373 -40.47431805 8.02025731 -31.39453125 4.640625 C-20.82758935 1.49531712 -11.04349232 -0.05583306 0 0 Z " fill="#0D76E2" transform="translate(260.5625,173.5)"/>
<path d="M0 0 C0.33 0 0.66 0 1 0 C1.91802919 17.95257082 1.91802919 17.95257082 -2.52734375 23.5 C-3.01332031 23.995 -3.49929688 24.49 -4 25 C-4.886875 25.9075 -5.77375 26.815 -6.6875 27.75 C-19.28885978 37.42081099 -38.64846731 39.5608901 -53.875 39.4375 C-54.53330811 39.43412628 -55.19161621 39.43075256 -55.86987305 39.42727661 C-65.82933565 39.35336959 -74.71609897 38.8682921 -84 35 C-84.60714844 34.74798828 -85.21429688 34.49597656 -85.83984375 34.23632812 C-93.1508167 31.11907279 -100.24470413 27.60185405 -105 21 C-105.90238747 18.29283758 -106.11851302 16.76223232 -106.09765625 13.98828125 C-106.09443359 13.23095703 -106.09121094 12.47363281 -106.08789062 11.69335938 C-106.07951172 10.90767578 -106.07113281 10.12199219 -106.0625 9.3125 C-106.05798828 8.51521484 -106.05347656 7.71792969 -106.04882812 6.89648438 C-106.0370585 4.93095743 -106.01912348 2.96546915 -106 1 C-105.01 1.495 -105.01 1.495 -104 2 C-104 2.66 -104 3.32 -104 4 C-103.34 4 -102.68 4 -102 4 C-100.31126121 5.64429829 -98.64694485 7.31384218 -97 9 C-89.25072086 15.3269431 -79.61913903 17.96041178 -70 20 C-68.82824219 20.25801392 -68.82824219 20.25801392 -67.6328125 20.52124023 C-47.96492592 24.09771701 -25.98780454 20.49652964 -9 10 C-5.00202549 7.06131788 -2.66516901 4.18812273 0 0 Z " fill="#0E74DD" transform="translate(314,214)"/>
<path d="M0 0 C0.74636719 0.76183594 1.49273437 1.52367187 2.26171875 2.30859375 C16.49801004 16.30118247 34.69009568 20.22067689 54.13525391 20.18286133 C60.58564221 20.1109852 66.69649325 19.40372209 73 18 C73.98226562 17.80535156 74.96453125 17.61070312 75.9765625 17.41015625 C86.58265883 15.09435485 95.69304201 10.85882938 103.57421875 3.3203125 C105 2 105 2 106 2 C107.05875402 15.84783037 107.05875402 15.84783037 104.6875 20.66796875 C102.92271396 22.70456336 101.1218233 24.34311806 99 26 C98.030625 26.886875 97.06125 27.77375 96.0625 28.6875 C79.80893387 39.42646333 53.14743166 40.47097768 34.50390625 37.4296875 C31.94052135 36.73884618 29.49188479 35.91114835 27 35 C26.18015625 34.79503906 25.3603125 34.59007812 24.515625 34.37890625 C15.36645546 32.09161386 6.39033113 27.01944772 0.7578125 19.296875 C-0.44375668 15.65500554 -0.20702385 12.05464469 -0.125 8.25 C-0.11597656 7.45722656 -0.10695312 6.66445313 -0.09765625 5.84765625 C-0.07417012 3.89830719 -0.03830137 1.94911425 0 0 Z " fill="#0D74DD" transform="translate(208,270)"/>
<path d="M0 0 C0.77988281 0.78375 1.55976563 1.5675 2.36328125 2.375 C7.71067135 7.69862392 13.22599063 10.81097189 20 14 C21.134375 14.556875 22.26875 15.11375 23.4375 15.6875 C41.65911989 22.40072838 68.26534617 22.00388333 86.15332031 14.04150391 C89.53759358 12.39664644 92.81717222 10.61680484 96.05859375 8.70703125 C99 7 99 7 102 6 C102.69937532 4.68352881 103.36729133 3.34977849 104 2 C104.66 1.67 105.32 1.34 106 1 C107.03269492 18.00121827 107.03269492 18.00121827 103.5 22.25 C101.81640625 23.7265625 101.81640625 23.7265625 100 25 C99.43152344 25.44085938 98.86304688 25.88171875 98.27734375 26.3359375 C85.51839258 35.27533004 70.4881091 37.36351239 55.34277344 37.31567383 C53.26703689 37.31252584 51.19274782 37.33601042 49.1171875 37.36132812 C33.28360066 37.43865284 16.61838242 34.73858246 4.75 23.3125 C0.20644297 18.40592682 -0.27633261 14.33878909 -0.125 7.75 C-0.11597656 7.00492188 -0.10695312 6.25984375 -0.09765625 5.4921875 C-0.07418358 3.66131941 -0.03831525 1.83061762 0 0 Z " fill="#0D75DF" transform="translate(208,243)"/>
<path d="M0 0 C3.00481285 0.05384969 4.02066856 0.20555677 6.625 1.875 C8.8395095 5.32963481 9.39144539 7.16561048 9.1875 11.3125 C7.24163506 14.64649789 4.72647907 17.41815738 2.1875 20.3125 C0.72187418 22.14000874 -0.73659236 23.97328434 -2.1875 25.8125 C-6.5548624 31.2759186 -6.5548624 31.2759186 -8.73828125 31.5859375 C-15.07661421 31.8556538 -15.07661421 31.8556538 -18.4375 29.375 C-20.39032633 25.02552317 -20.36232291 21.81832659 -18.8125 17.3125 C-16.79805551 14.31058272 -14.35727307 11.86729186 -11.8125 9.3125 C-10.51103507 7.8419471 -9.21898055 6.36300014 -7.9375 4.875 C-3.96636476 0.32511187 -3.96636476 0.32511187 0 0 Z " fill="#0F74D9" transform="translate(198.8125,305.6875)"/>
<path d="M0 0 C4.69459009 3.80783418 6.65962539 7.96739254 8.8125 13.4375 C9.12380859 14.17548828 9.43511719 14.91347656 9.75585938 15.67382812 C11.4711004 19.91480867 12.50216015 23.35162568 12 28 C10.5625 31.375 10.5625 31.375 8 34 C4.85676159 34.8132048 2.10596339 34.97881593 -1 34 C-4.9024588 30.2000448 -6.44690854 25.77737065 -8.1875 20.75 C-9.52322376 16.01986158 -9.52322376 16.01986158 -12 12 C-12.58988764 5.74719101 -12.58988764 5.74719101 -10.125 2.625 C-6.61855058 -0.0564025 -4.42565562 -0.52066537 0 0 Z " fill="#0D76E1" transform="translate(300,319)"/>
<path d="M0 0 C0.69367676 0.15686279 1.38735352 0.31372559 2.10205078 0.4753418 C6.34201752 1.54845792 9.06567296 2.69274723 11.6875 6.25 C12.47132757 9.01772217 12.32914583 11.45425747 11.6875 14.25 C9.75 16.75 9.75 16.75 6.6875 18.25 C-1.71948405 19.21473588 -10.099825 16.94291951 -18.3125 15.25 C-18.6425 14.26 -18.9725 13.27 -19.3125 12.25 C-21.31266466 11.04117904 -21.31266466 11.04117904 -23.3125 10.25 C-23.66921933 6.41526716 -23.61021416 4.69657125 -21.4375 1.4375 C-15.73790867 -4.42972637 -7.1461924 -1.69796897 0 0 Z " fill="#0F74DB" transform="translate(161.3125,216.75)"/>
<path d="M0 0 C3.71245365 1.41831416 5.39864498 4.14955375 7.09375 7.65942383 C7.94628156 9.68292961 8.71778305 11.72191287 9.46875 13.78515625 C9.736875 14.47544922 10.005 15.16574219 10.28125 15.87695312 C11.80882236 19.98814915 12.65260908 23.39731388 12.21875 27.84765625 C10.84375 30.22265625 10.84375 30.22265625 9.21875 31.84765625 C8.55875 31.84765625 7.89875 31.84765625 7.21875 31.84765625 C7.21875 32.50765625 7.21875 33.16765625 7.21875 33.84765625 C0.59375 34.09765625 0.59375 34.09765625 -2.78125 31.84765625 C-2.78125 31.18765625 -2.78125 30.52765625 -2.78125 29.84765625 C-3.44125 29.84765625 -4.10125 29.84765625 -4.78125 29.84765625 C-5.79965461 27.20768478 -6.79580511 24.56242346 -7.78125 21.91015625 C-8.06742188 21.17474609 -8.35359375 20.43933594 -8.6484375 19.68164062 C-10.59096113 14.38595119 -11.50945826 9.49470524 -10.78125 3.84765625 C-8.1661413 -0.92775963 -4.89527131 -0.46102726 0 0 Z " fill="#0E76DE" transform="translate(220.78125,129.15234375)"/>
<path d="M0 0 C2.6875 1.5625 2.6875 1.5625 4 4 C4.58901692 7.13564892 4.64324789 9.86990982 4 13 C1.87410855 15.81166288 0.41330394 16.7965899 -3.08984375 17.30078125 C-8.07732475 17.46276781 -12.22609741 16.44922043 -17 15 C-18.5611821 14.87765864 -20.12393482 14.77422303 -21.6875 14.6875 C-25.04945433 14.34900972 -25.84395708 14.12940145 -28.5625 11.875 C-30.36651975 8.26696051 -30.50765975 5.98875521 -30 2 C-25.04178223 -6.97201311 -8.28639489 -2.35115703 0 0 Z " fill="#0F73D7" transform="translate(374,245)"/>
<path d="M0 0 C3.57350683 1.98528157 4.75420175 3.22292916 5.9921875 7.13671875 C6.00322962 12.59704522 3.66624275 15.13177294 0.3125 19.25 C-0.23083984 19.95640625 -0.77417969 20.6628125 -1.33398438 21.390625 C-7.60349686 29.39619355 -7.60349686 29.39619355 -12 30.50390625 C-14.1369378 30.56651185 -15.92109459 30.51866352 -18 30 C-20.5625 27.4375 -20.5625 27.4375 -22 24 C-21.98324388 17.15512366 -18.81689477 13.56646815 -14.5625 8.625 C-13.96373047 7.90183594 -13.36496094 7.17867187 -12.74804688 6.43359375 C-8.64737945 1.53850811 -6.76179412 -0.66292099 0 0 Z " fill="#0D77E2" transform="translate(332,144)"/>
<path d="M0 0 C0.77988281 0.78375 1.55976563 1.5675 2.36328125 2.375 C9.46135344 9.44152521 17.84364621 13.21802778 27 17 C27 17.33 27 17.66 27 18 C25.58566794 18.2236337 24.16832382 18.42826476 22.75 18.625 C21.56664062 18.79902344 21.56664062 18.79902344 20.359375 18.9765625 C17.67847541 19.00319395 16.27305911 18.36592084 14 17 C14 16.34 14 15.68 14 15 C13.01 15.33 12.02 15.66 11 16 C10.67 16.99 10.34 17.98 10 19 C10.99 19 11.98 19 13 19 C13.66 20.65 14.32 22.3 15 24 C14.01 24.33 13.02 24.66 12 25 C12.99 25 13.98 25 15 25 C15 25.99 15 26.98 15 28 C16.98 28.33 18.96 28.66 21 29 C21 29.99 21 30.98 21 32 C12.89352872 31.24001832 7.33597776 25.71233797 2.34765625 19.76953125 C-0.53853839 15.97983221 -0.11387691 12.45149687 -0.0625 7.875 C-0.05798828 7.12089844 -0.05347656 6.36679688 -0.04882812 5.58984375 C-0.03703499 3.72652873 -0.01909942 1.86325445 0 0 Z " fill="#0F73D6" transform="translate(208,243)"/>
<path d="M0 0 C0.92017937 14.19461883 0.92017937 14.19461883 -1.3359375 18.62109375 C-3 20.5 -3 20.5 -6 23 C-6.33 22.01 -6.66 21.02 -7 20 C-6.67 19.34 -6.34 18.68 -6 18 C-6.66 18 -7.32 18 -8 18 C-8.33 18.99 -8.66 19.98 -9 21 C-11 15.25 -11 15.25 -11 13 C-14.3 13.33 -17.6 13.66 -21 14 C-20 12 -20 12 -18.03125 11.2109375 C-17.1959375 10.93507813 -16.360625 10.65921875 -15.5 10.375 C-10.23490889 8.39017429 -6.73730377 5.48337868 -2.71484375 1.609375 C-1 0 -1 0 0 0 Z " fill="#0E71D2" transform="translate(314,272)"/>
<path d="M0 0 C0.33 0 0.66 0 1 0 C2.03269492 17.00121827 2.03269492 17.00121827 -1.5 21.25 C-3.1328125 22.70703125 -3.1328125 22.70703125 -5 24 C-5.71929687 24.49886719 -6.43859375 24.99773437 -7.1796875 25.51171875 C-9.08709066 26.75051262 -11.00850369 27.90316066 -13 29 C-13.33 28.34 -13.66 27.68 -14 27 C-13.59007812 26.56429688 -13.18015625 26.12859375 -12.7578125 25.6796875 C-9.44783504 22.02129136 -6.88927398 19.00216614 -6 14 C-6.350625 13.319375 -6.70125 12.63875 -7.0625 11.9375 C-7.371875 11.298125 -7.68125 10.65875 -8 10 C-6.75 7.25 -6.75 7.25 -5 5 C-4.34 5 -3.68 5 -3 5 C-2.690625 4.360625 -2.38125 3.72125 -2.0625 3.0625 C-1 1 -1 1 0 0 Z " fill="#0F73D5" transform="translate(313,244)"/>
<path d="M0 0 C2.97 0.495 2.97 0.495 6 1 C6 1.66 6 2.32 6 3 C7.216875 3.144375 8.43375 3.28875 9.6875 3.4375 C11.96991766 3.71632938 14.13550615 4.03209356 16.375 4.5625 C20.56278509 5.26046418 24.76438378 5.07402048 29 5 C29 6.32 29 7.64 29 9 C32.19902639 9.08886184 34.92677456 8.91058531 38 8 C38.495 8.99 38.495 8.99 39 10 C41.45862401 10.05383848 43.9160755 10.09359038 46.375 10.125 C47.07367188 10.14175781 47.77234375 10.15851563 48.4921875 10.17578125 C50.32897486 10.19344267 52.16601963 10.10303261 54 10 C54.66 9.34 55.32 8.68 56 8 C59.2578125 7.8046875 59.2578125 7.8046875 63.125 7.875 C65.04699219 7.90207031 65.04699219 7.90207031 67.0078125 7.9296875 C68.48894531 7.96449219 68.48894531 7.96449219 70 8 C56.43689475 15.20539966 35.53113047 13.31438667 21 10 C15.54971606 8.30095802 10.26452171 6.19989212 5 4 C5 3.34 5 2.68 5 2 C3.35 1.67 1.7 1.34 0 1 C0 0.67 0 0.34 0 0 Z " fill="#1272D0" transform="translate(217,212)"/>
<path d="M0 0 C2.375 1.5 2.375 1.5 4 3 C3 5 3 5 1 6 C0.01 7.485 0.01 7.485 -1 9 C-2.32 8.67 -3.64 8.34 -5 8 C-5.12375 8.61875 -5.2475 9.2375 -5.375 9.875 C-6 12 -6 12 -8 14 C-8.99 15.485 -8.99 15.485 -10 17 C-11.99874583 12.87758672 -12.4979154 9.56422451 -12 5 C-8.44579091 0.49800182 -5.66161794 -0.45292944 0 0 Z " fill="#1070D2" transform="translate(300,319)"/>
<path d="M0 0 C0.74507812 0.76054687 1.49015625 1.52109375 2.2578125 2.3046875 C7.59416809 7.54982333 12.98881062 11.37080398 20 14 C19.34 14.66 18.68 15.32 18 16 C15.375 15.625 15.375 15.625 13 15 C13 14.34 13 13.68 13 13 C11.35 13.33 9.7 13.66 8 14 C8 13.01 8 12.02 8 11 C6.02 11.33 4.04 11.66 2 12 C1.67 13.32 1.34 14.64 1 16 C1.99 16 2.98 16 4 16 C4.33 18.31 4.66 20.62 5 23 C1.16666667 20.44444444 1.16666667 20.44444444 0 17 C-0.23381674 14.07803533 -0.18814166 11.17880171 -0.125 8.25 C-0.11597656 7.45722656 -0.10695312 6.66445313 -0.09765625 5.84765625 C-0.07417012 3.89830719 -0.03830137 1.94911425 0 0 Z " fill="#126ECC" transform="translate(208,270)"/>
<path d="M0 0 C0.33 0 0.66 0 1 0 C1.08107646 2.75059381 1.14052813 5.49879021 1.1875 8.25 C1.22520508 9.41595703 1.22520508 9.41595703 1.26367188 10.60546875 C1.33834499 16.42997175 1.33834499 16.42997175 -0.51171875 19.546875 C-1.00285156 20.02640625 -1.49398438 20.5059375 -2 21 C-6 14.125 -6 14.125 -6 13 C-7.98 13 -9.96 13 -12 13 C-9.44751213 10.44751213 -6.89487917 7.89732384 -4.3125 5.375 C-1.88724324 3.02914245 -1.88724324 3.02914245 0 0 Z " fill="#1174D8" transform="translate(314,214)"/>
<path d="M0 0 C0.66 0.33 1.32 0.66 2 1 C1.98839844 1.70125 1.97679687 2.4025 1.96484375 3.125 C1.95582031 4.07375 1.94679688 5.0225 1.9375 6 C1.92589844 6.928125 1.91429687 7.85625 1.90234375 8.8125 C1.94479646 12.09739594 1.94479646 12.09739594 2.5234375 15.70703125 C3.19340265 20.72431259 2.94762676 25.64531687 2.6875 30.6875 C2.63432617 32.07291992 2.63432617 32.07291992 2.58007812 33.48632812 C2.36096514 38.02883467 2.12593198 41.87829514 0 46 C0.66 46.33 1.32 46.66 2 47 C1.67 48.98 1.34 50.96 1 53 C0.01 53 -0.98 53 -2 53 C-1.9278125 52.36723145 -1.855625 51.73446289 -1.78125 51.08251953 C-0.77864368 41.01294046 -0.92229668 30.98013199 -1 20.875 C-1.02655855 17.35156597 -1.04650905 13.82818342 -1.0625 10.3046875 C-1.07079834 9.49957733 -1.07909668 8.69446716 -1.08764648 7.86495972 C-1.1127546 2.22550919 -1.1127546 2.22550919 0 0 Z " fill="#1368BB" transform="translate(413,219)"/>
<path d="M0 0 C3.34668178 5.02002267 5.91378212 9.86460578 5 16 C3.5625 19.375 3.5625 19.375 1 22 C-2.06223493 22.5059803 -4.92612269 22.35467815 -8 22 C-8.33 21.34 -8.66 20.68 -9 20 C-7.02 19.67 -5.04 19.34 -3 19 C-2.8453125 18.1028125 -2.8453125 18.1028125 -2.6875 17.1875 C-2 15 -2 15 -0.375 13.5625 C0.07875 13.046875 0.5325 12.53125 1 12 C0.71433121 9.64934822 0.71433121 9.64934822 0 7 C-0.03824623 4.66698014 -0.04574284 2.33288492 0 0 Z " fill="#1478E0" transform="translate(307,331)"/>
<path d="M0 0 C1.32 0 2.64 0 4 0 C4 0.66 4 1.32 4 2 C4.99 2 5.98 2 7 2 C5.63444631 7.63290898 1.43790888 10.65919499 -3 14 C-8.22580645 17 -8.22580645 17 -11 17 C-11 16.34 -11 15.68 -11 15 C-10.01 15 -9.02 15 -8 15 C-7.87625 14.38125 -7.7525 13.7625 -7.625 13.125 C-7 11 -7 11 -5 9 C-2.375 9.375 -2.375 9.375 0 10 C-0.08378906 9.36191406 -0.16757812 8.72382813 -0.25390625 8.06640625 C-0.35574219 7.24011719 -0.45757812 6.41382813 -0.5625 5.5625 C-0.66691406 4.73878906 -0.77132813 3.91507813 -0.87890625 3.06640625 C-0.91886719 2.38449219 -0.95882813 1.70257813 -1 1 C-0.67 0.67 -0.34 0.34 0 0 Z " fill="#126BC5" transform="translate(307,200)"/>
<path d="M0 0 C40.27667538 -1.31161518 40.27667538 -1.31161518 57 9 C56.34 9.66 55.68 10.32 55 11 C55 10.34 55 9.68 55 9 C53.906875 8.87625 52.81375 8.7525 51.6875 8.625 C48 8 48 8 45 6 C42.6670386 5.95833998 40.3329614 5.95833998 38 6 C37.01 5.67 36.02 5.34 35 5 C35 4.34 35 3.68 35 3 C30.66415841 2.1888339 26.4774902 1.82009925 22.0703125 1.68359375 C20.13671875 1.62075195 20.13671875 1.62075195 18.1640625 1.55664062 C16.81771091 1.51683972 15.47135671 1.47712727 14.125 1.4375 C12.75519667 1.39424817 11.38540479 1.35063188 10.015625 1.30664062 C6.67717843 1.20084478 3.338661 1.09875628 0 1 C0 0.67 0 0.34 0 0 Z " fill="#135CA3" transform="translate(246,174)"/>
<path d="M0 0 C3.34783866 1.05429173 4.46908293 2.62826883 6.12109375 5.66796875 C6.95531299 7.99703172 7.55239976 10.2510193 8.12109375 12.66796875 C6.12109375 12.66796875 6.12109375 12.66796875 4.55859375 11.35546875 C3.12109375 9.66796875 3.12109375 9.66796875 2.12109375 6.66796875 C1.46109375 6.35859375 0.80109375 6.04921875 0.12109375 5.73046875 C-1.87890625 4.66796875 -1.87890625 4.66796875 -2.62890625 2.54296875 C-2.71140625 1.92421875 -2.79390625 1.30546875 -2.87890625 0.66796875 C-3.86890625 0.99796875 -4.85890625 1.32796875 -5.87890625 1.66796875 C-6.20890625 3.31796875 -6.53890625 4.96796875 -6.87890625 6.66796875 C-7.86890625 6.66796875 -8.85890625 6.66796875 -9.87890625 6.66796875 C-9.87890625 8.64796875 -9.87890625 10.62796875 -9.87890625 12.66796875 C-10.20890625 12.66796875 -10.53890625 12.66796875 -10.87890625 12.66796875 C-11.48594437 4.77647315 -11.48594437 4.77647315 -9.44140625 1.04296875 C-6.05672695 -0.77320063 -3.74030689 -0.62031362 0 0 Z " fill="#1468BE" transform="translate(220.87890625,129.33203125)"/>
<path d="M0 0 C3.9375 0.5625 3.9375 0.5625 6.375 2.125 C8.37406214 5.24353694 8.65610476 7.90436183 8.9375 11.5625 C8.6075 10.5725 8.2775 9.5825 7.9375 8.5625 C6.9475 8.2325 5.9575 7.9025 4.9375 7.5625 C4.9375 6.5725 4.9375 5.5825 4.9375 4.5625 C2.6275 4.5625 0.3175 4.5625 -2.0625 4.5625 C-2.0625 5.2225 -2.0625 5.8825 -2.0625 6.5625 C-2.805 6.68625 -3.5475 6.81 -4.3125 6.9375 C-6.86391485 7.51736701 -8.7892573 8.29958739 -11.0625 9.5625 C-8.94869076 4.37405914 -5.85443537 0.29435709 0 0 Z " fill="#0F6DCC" transform="translate(199.0625,305.4375)"/>
<path d="M0 0 C0.28875 0.639375 0.5775 1.27875 0.875 1.9375 C1.82823451 4.15206079 1.82823451 4.15206079 4 5 C1.41806023 5.67250524 -1.16532071 6.33817901 -3.75 7 C-4.47960937 7.19078125 -5.20921875 7.3815625 -5.9609375 7.578125 C-9.44571646 8.46515964 -12.38123722 9 -16 9 C-16 8.34 -16 7.68 -16 7 C-13.69 7 -11.38 7 -9 7 C-9 6.01 -9 5.02 -9 4 C-9.66 3.67 -10.32 3.34 -11 3 C-9.73160474 2.49384702 -8.46016898 1.99530901 -7.1875 1.5 C-6.12595703 1.08234375 -6.12595703 1.08234375 -5.04296875 0.65625 C-3 0 -3 0 0 0 Z " fill="#126ECE" transform="translate(304,406)"/>
<path d="M0 0 C1.77119803 0.14133499 3.54195287 0.28823208 5.3125 0.4375 C6.29863281 0.51871094 7.28476563 0.59992188 8.30078125 0.68359375 C11 1 11 1 14 2 C14 2.66 14 3.32 14 4 C24.23 4 34.46 4 45 4 C45 4.33 45 4.66 45 5 C40.69908854 5.0754071 36.39854974 5.12917959 32.09716797 5.16479492 C30.6407194 5.17967624 29.18431392 5.19998796 27.72802734 5.22631836 C17.68705083 5.40302292 8.77309341 4.57130725 -1 2 C-0.67 1.34 -0.34 0.68 0 0 Z " fill="#1664B1" transform="translate(232,275)"/>
<path d="M0 0 C1.24136719 0.00064453 2.48273438 0.00128906 3.76171875 0.00195312 C5.70498047 0.02612305 5.70498047 0.02612305 7.6875 0.05078125 C9.58435547 0.04594727 9.58435547 0.04594727 11.51953125 0.04101562 C19.43000576 0.08582264 26.934932 0.78696185 34.6875 2.36328125 C34.6875 2.69328125 34.6875 3.02328125 34.6875 3.36328125 C30.85954903 3.43043828 27.34751456 3.46792775 23.55859375 2.8671875 C18.78497471 2.24579814 14.11983461 2.21741004 9.3125 2.23828125 C8.39855469 2.23441406 7.48460937 2.23054688 6.54296875 2.2265625 C5.67542969 2.22785156 4.80789063 2.22914062 3.9140625 2.23046875 C3.12596191 2.23159668 2.33786133 2.23272461 1.52587891 2.23388672 C-0.33042955 2.16263921 -0.33042955 2.16263921 -1.3125 3.36328125 C-2.405625 3.48703125 -3.49875 3.61078125 -4.625 3.73828125 C-8.22349753 4.34819609 -9.68798273 4.94872537 -12.3125 7.36328125 C-9.79813025 1.28688769 -6.38220849 -0.0170229 0 0 Z " fill="#196ABD" transform="translate(263.3125,71.63671875)"/>
<path d="M0 0 C3 1 3 1 4 2 C6.49238569 2.12653198 8.94470441 2.18519825 11.4375 2.1875 C12.47874023 2.20586914 12.47874023 2.20586914 13.54101562 2.22460938 C15.36220901 2.22989842 17.1828692 2.12169207 19 2 C19.66 1.34 20.32 0.68 21 0 C24.2578125 -0.1953125 24.2578125 -0.1953125 28.125 -0.125 C30.04699219 -0.09792969 30.04699219 -0.09792969 32.0078125 -0.0703125 C33.48894531 -0.03550781 33.48894531 -0.03550781 35 0 C20.85136031 7.51646483 1.19930598 4.57927617 -14 2 C-14 1.67 -14 1.34 -14 1 C-13.07316406 1.01160156 -12.14632812 1.02320313 -11.19140625 1.03515625 C-9.39509766 1.04869141 -9.39509766 1.04869141 -7.5625 1.0625 C-5.77005859 1.07990234 -5.77005859 1.07990234 -3.94140625 1.09765625 C-1.11126659 1.33901792 -1.11126659 1.33901792 0 0 Z " fill="#114D88" transform="translate(252,220)"/>
<path d="M0 0 C0.99 0 1.98 0 3 0 C3.66 0.99 4.32 1.98 5 3 C5.66 3.33 6.32 3.66 7 4 C7.66 5.32 8.32 6.64 9 8 C6.03 8 3.06 8 0 8 C-0.33 8.99 -0.66 9.98 -1 11 C-1.66 10.67 -2.32 10.34 -3 10 C-3.625 7.9375 -3.625 7.9375 -4 6 C-3.01 6 -2.02 6 -1 6 C-1.020625 5.195625 -1.04125 4.39125 -1.0625 3.5625 C-1 1 -1 1 0 0 Z " fill="#0D78E3" transform="translate(215,130)"/>
<path d="M0 0 C-0.969375 0.4125 -1.93875 0.825 -2.9375 1.25 C-6.12260099 2.64899168 -6.12260099 2.64899168 -6.875 5.1875 C-6.91625 5.785625 -6.9575 6.38375 -7 7 C-8.65 7 -10.3 7 -12 7 C-12.33 6.01 -12.66 5.02 -13 4 C-16.63 4 -20.26 4 -24 4 C-24 3.67 -24 3.34 -24 3 C-22.83984375 2.81824219 -22.83984375 2.81824219 -21.65625 2.6328125 C-14.52210999 1.48778664 -14.52210999 1.48778664 -7.5 -0.1875 C-4.15879638 -0.96313655 -3.10191485 -0.95914472 0 0 Z " fill="#1066BB" transform="translate(293,287)"/>
<path d="M0 0 C2 1 2 1 3.75 2.9375 C6.36362388 5.33332189 8.6111753 6.07577508 12 7 C8.01716393 8.51532067 4.34822381 7.56248947 0.3125 6.75 C-0.75291016 6.54346802 -0.75291016 6.54346802 -1.83984375 6.33276367 C-7.06122298 5.28289009 -12.00730192 3.87226178 -17 2 C-17 1.67 -17 1.34 -17 1 C-12.9220585 0.81463902 -10.57982791 1.15234688 -7 3 C-4.33290931 3.16750414 -4.33290931 3.16750414 -2 3 C-2 2.34 -2 1.68 -2 1 C-1.34 0.67 -0.68 0.34 0 0 Z " fill="#1162B1" transform="translate(225,408)"/>
<path d="M0 0 C3.465 1.485 3.465 1.485 7 3 C7 3.66 7 4.32 7 5 C7.66 5.33 8.32 5.66 9 6 C7.87926138 6.83905565 6.75325453 7.67107831 5.625 8.5 C4.99851563 8.9640625 4.37203125 9.428125 3.7265625 9.90625 C2 11 2 11 0 11 C-1.49297212 8.01405576 -1.11755228 5.29146376 -1 2 C-0.67 1.34 -0.34 0.68 0 0 Z " fill="#0E77E2" transform="translate(211,250)"/>
<path d="M0 0 C1.24199363 3.73005301 0.94038624 7.06287333 0.66015625 10.953125 C0.59144569 11.94345734 0.59144569 11.94345734 0.52134705 12.95379639 C0.37433556 15.05300177 0.21854489 17.15144871 0.0625 19.25 C-0.03899222 20.67704215 -0.13991012 22.10412527 -0.24023438 23.53125 C-0.48683824 27.0213326 -0.74131715 30.51078951 -1 34 C-3.54433529 30.18349706 -3.34169245 27.05039323 -3.3125 22.625 C-3.31121094 21.82658691 -3.30992188 21.02817383 -3.30859375 20.20556641 C-3.19576356 13.15791041 -2.00958938 6.7704023 0 0 Z " fill="#1562AF" transform="translate(108,218)"/>
<path d="M0 0 C0.66 0.33 1.32 0.66 2 1 C1.67 2.32 1.34 3.64 1 5 C1.763125 5.144375 2.52625 5.28875 3.3125 5.4375 C6 6 6 6 9 7 C10.6977458 7.21373297 12.40071816 7.38734551 14.10546875 7.53515625 C15.08837891 7.62216797 16.07128906 7.70917969 17.08398438 7.79882812 C18.10814453 7.88583984 19.13230469 7.97285156 20.1875 8.0625 C21.74114258 8.19881836 21.74114258 8.19881836 23.32617188 8.33789062 C25.88385044 8.56183483 28.44177459 8.78240673 31 9 C31 9.33 31 9.66 31 10 C26.77005691 9.91899061 22.54154135 9.80615495 18.3125 9.6875 C17.11431641 9.66494141 15.91613281 9.64238281 14.68164062 9.61914062 C13.52470703 9.58369141 12.36777344 9.54824219 11.17578125 9.51171875 C10.11270752 9.48553467 9.04963379 9.45935059 7.9543457 9.43237305 C3.62611784 8.79893023 0.9610619 7.15990229 -1.8125 3.8125 C-2.204375 3.214375 -2.59625 2.61625 -3 2 C-2.01 2 -1.02 2 0 2 C0 1.34 0 0.68 0 0 Z " fill="#17589A" transform="translate(254,85)"/>
<path d="M0 0 C1.35561417 2.71122834 0.67911809 4.07979223 0 7 C-0.1546875 8.3303125 -0.1546875 8.3303125 -0.3125 9.6875 C-1 12 -1 12 -2.75 13.375 C-5.4981783 14.13838286 -7.27958849 13.75566986 -10 13 C-6.73279209 8.61105071 -3.45101522 4.24740335 0 0 Z " fill="#136DCB" transform="translate(385,329)"/>
<path d="M0 0 C1.91765594 0.14939774 3.83946522 0.24810283 5.76171875 0.31640625 C7.43911133 0.37924805 7.43911133 0.37924805 9.15039062 0.44335938 C10.31763672 0.48267578 11.48488281 0.52199219 12.6875 0.5625 C13.86634766 0.60568359 15.04519531 0.64886719 16.25976562 0.69335938 C19.17305883 0.79951176 22.08643757 0.90156242 25 1 C25 1.33 25 1.66 25 2 C20.89237237 2.04992909 16.78486552 2.08596646 12.67700195 2.10986328 C11.28341591 2.1198393 9.88985034 2.13342501 8.49633789 2.15087891 C0.7407064 2.24549371 -6.48414568 2.11409413 -14 0 C-9.14668327 -2.78399048 -5.17611924 -1.72537308 0 0 Z " fill="#135AA0" transform="translate(250,251)"/>
<path d="M0 0 C2.23436006 2.05045564 3.58029964 3.84127042 4.7890625 6.6171875 C5.09070313 7.30683594 5.39234375 7.99648437 5.703125 8.70703125 C6.00734375 9.42246094 6.3115625 10.13789063 6.625 10.875 C6.93695313 11.58269531 7.24890625 12.29039062 7.5703125 13.01953125 C9.14217004 16.65783943 10.4265231 20.04765921 11 24 C10.34 24 9.68 24 9 24 C7.14223235 20.86501708 6.79859524 18.62528568 7 15 C5.68 14.67 4.36 14.34 3 14 C2.87625 12.865625 2.7525 11.73125 2.625 10.5625 C2.41875 9.386875 2.2125 8.21125 2 7 C1.34 6.67 0.68 6.34 0 6 C0 4.02 0 2.04 0 0 Z " fill="#135FAC" transform="translate(416,161)"/>
<path d="M0 0 C1.1875 2.5625 1.1875 2.5625 2 5 C1.01 5.66 0.02 6.32 -1 7 C-1.99 8.485 -1.99 8.485 -3 10 C-3 9.34 -3 8.68 -3 8 C-3.66 8 -4.32 8 -5 8 C-5 7.01 -5 6.02 -5 5 C-5.99 5 -6.98 5 -8 5 C-7.75 3.125 -7.75 3.125 -7 1 C-4.09342573 -1.03460199 -3.47133392 -1.15711131 0 0 Z " fill="#0D78E4" transform="translate(217,281)"/>
<path d="M0 0 C0.33 0 0.66 0 1 0 C1 5.61 1 11.22 1 17 C0.34 17.33 -0.32 17.66 -1 18 C-0.67 14.7 -0.34 11.4 0 8 C-1.65 8.66 -3.3 9.32 -5 10 C-5 9.34 -5 8.68 -5 8 C-5.66 7.67 -6.32 7.34 -7 7 C-6.38125 6.7525 -5.7625 6.505 -5.125 6.25 C-2.62985717 4.78226892 -2.09872287 3.62003145 -1 1 C-0.67 0.67 -0.34 0.34 0 0 Z " fill="#126ECA" transform="translate(313,244)"/>
<path d="M0 0 C0.66 0.33 1.32 0.66 2 1 C1.34 2.32 0.68 3.64 0 5 C0 4.34 0 3.68 0 3 C-0.99 3 -1.98 3 -3 3 C-3 3.66 -3 4.32 -3 5 C-3.66 5.66 -4.32 6.32 -5 7 C-5 8.32 -5 9.64 -5 11 C-6.32 11 -7.64 11 -9 11 C-9.33 10.01 -9.66 9.02 -10 8 C-10.66 7.67 -11.32 7.34 -12 7 C-10.56542672 6.0165504 -9.12722594 5.03839079 -7.6875 4.0625 C-6.88699219 3.51722656 -6.08648437 2.97195312 -5.26171875 2.41015625 C-3 1 -3 1 0 0 Z " fill="#1267BA" transform="translate(227,179)"/>
<path d="M0 0 C-0.61875 0.433125 -1.2375 0.86625 -1.875 1.3125 C-4.2197245 2.99740483 -4.2197245 2.99740483 -6 6 C-6 5.34 -6 4.68 -6 4 C-6.66 4 -7.32 4 -8 4 C-8.33 4.66 -8.66 5.32 -9 6 C-9 5.34 -9 4.68 -9 4 C-9.7425 4.53625 -10.485 5.0725 -11.25 5.625 C-12.1575 6.07875 -13.065 6.5325 -14 7 C-16.171875 6.0859375 -16.171875 6.0859375 -18 5 C-15.7764514 4.00206751 -13.55078429 3.00973023 -11.3203125 2.02734375 C-9.60097633 1.26608885 -7.89141972 0.48266254 -6.1875 -0.3125 C-3.69327968 -1.09639781 -2.42382331 -0.89771234 0 0 Z " fill="#1266BA" transform="translate(106,129)"/>
<path d="M0 0 C1 2 1 2 0.375 4.375 C-1.28302642 7.54032316 -3.03042375 9.04442539 -6 11 C-6.99 11 -7.98 11 -9 11 C-9 11.66 -9 12.32 -9 13 C-8.34 13.33 -7.68 13.66 -7 14 C-9.31 14 -11.62 14 -14 14 C-9.33333333 9.33333333 -4.66666667 4.66666667 0 0 Z " fill="#136ABD" transform="translate(374,342)"/>
<path d="M0 0 C-0.99 1.485 -0.99 1.485 -2 3 C-1.67 3.66 -1.34 4.32 -1 5 C-4.56327058 5.08098342 -7.56050142 4.85987464 -11 4 C-11.99 4.495 -11.99 4.495 -13 5 C-15.3400417 4.71758117 -17.67504723 4.38749213 -20 4 C-20 3.67 -20 3.34 -20 3 C-17.04340215 2.30415424 -14.08512767 1.61801493 -11.125 0.9375 C-10.28324219 0.73833984 -9.44148438 0.53917969 -8.57421875 0.33398438 C-7.76855469 0.15029297 -6.96289062 -0.03339844 -6.1328125 -0.22265625 C-5.38918457 -0.39547119 -4.64555664 -0.56828613 -3.87939453 -0.74633789 C-2 -1 -2 -1 0 0 Z " fill="#1470D1" transform="translate(294,259)"/>
<path d="M0 0 C1.32 0.99 2.64 1.98 4 3 C2.37829621 4.00533667 0.75252763 5.00411907 -0.875 6 C-1.77992188 6.556875 -2.68484375 7.11375 -3.6171875 7.6875 C-6 9 -6 9 -8 9 C-8 9.66 -8 10.32 -8 11 C-8.66 10.67 -9.32 10.34 -10 10 C-10 9.34 -10 8.68 -10 8 C-9.34 8 -8.68 8 -8 8 C-7.34 6.68 -6.68 5.36 -6 4 C-5.01 4 -4.02 4 -3 4 C-2.67 3.01 -2.34 2.02 -2 1 C-1.34 0.67 -0.68 0.34 0 0 Z " fill="#106EC8" transform="translate(353,385)"/>
<path d="M0 0 C-7.2604685 3.31456171 -14.87684238 6.64130192 -23 6 C-22.67 5.34 -22.34 4.68 -22 4 C-19.6954948 3.36182933 -17.38503677 2.97962677 -15.03125 2.5625 C-14.3609375 2.376875 -13.690625 2.19125 -13 2 C-12.67 1.34 -12.34 0.68 -12 0 C-9.78515625 -0.44921875 -9.78515625 -0.44921875 -7.0625 -0.6875 C-6.16660156 -0.77386719 -5.27070313 -0.86023438 -4.34765625 -0.94921875 C-2 -1 -2 -1 0 0 Z " fill="#1261B1" transform="translate(301,300)"/>
<path d="M0 0 C0.99 0.495 0.99 0.495 2 1 C2 1.66 2 2.32 2 3 C2.66 3 3.32 3 4 3 C3.67 3.66 3.34 4.32 3 5 C2.34 4.67 1.68 4.34 1 4 C1.53851968 9.27749285 2.77343836 13.25645564 5 18 C4.01 18.99 3.02 19.98 2 21 C-0.71486934 17.02389214 -0.22440753 12.86098023 -0.125 8.25 C-0.11597656 7.45722656 -0.10695312 6.66445312 -0.09765625 5.84765625 C-0.07417012 3.89830719 -0.03830137 1.94911425 0 0 Z " fill="#1661AD" transform="translate(208,215)"/>
<path d="M0 0 C3.63195497 -0.33785628 5.58823227 -0.22875985 8.8125 1.5625 C11.59037881 4.65785068 11.76435605 6.91550495 12 11 C11.01 11.495 11.01 11.495 10 12 C8.64560332 9.29120665 8.93498549 6.99066732 9 4 C6.36 3.67 3.72 3.34 1 3 C0.67 2.01 0.34 1.02 0 0 Z " fill="#176ABB" transform="translate(326,144)"/>
<path d="M0 0 C2.4375 0.375 2.4375 0.375 5 1 C5.33 1.66 5.66 2.32 6 3 C0.69779171 5.70751061 -4.01831411 7.09702734 -10 6 C-12.5625 4 -12.5625 4 -14 2 C-12.96875 2.33 -11.9375 2.66 -10.875 3 C-7.51573291 3.9715192 -4.50893798 4.17116771 -1 4 C-0.67 2.68 -0.34 1.36 0 0 Z " fill="#106FCB" transform="translate(100,148)"/>
<path d="M0 0 C2.33303944 0.03703237 4.66715242 0.04760913 7 0 C3.58788584 2.27474277 1.3431471 2.56629644 -2.6875 3.125 C-3.86699219 3.29257812 -5.04648437 3.46015625 -6.26171875 3.6328125 C-7.16535156 3.75398438 -8.06898438 3.87515625 -9 4 C-9 2.68 -9 1.36 -9 0 C-5.94536813 -1.52731594 -3.33661472 -0.49228742 0 0 Z " fill="#1170CC" transform="translate(286,275)"/>
<path d="M0 0 C0.33 0 0.66 0 1 0 C2.14231412 6.65425699 3.22602467 13.29221378 4 20 C2.35 18.35 0.7 16.7 -1 15 C-1.99 15.495 -1.99 15.495 -3 16 C-2.68289062 15.29488281 -2.36578125 14.58976562 -2.0390625 13.86328125 C-0.95461714 10.87494121 -0.6035641 8.34930342 -0.375 5.1875 C-0.26285156 3.72376953 -0.26285156 3.72376953 -0.1484375 2.23046875 C-0.09945312 1.49441406 -0.05046875 0.75835937 0 0 Z " fill="#146ECB" transform="translate(107,259)"/>
<path d="M0 0 C0.66 0.33 1.32 0.66 2 1 C1.34 1.66 0.68 2.32 0 3 C-0.37366113 4.99285937 -0.70740515 6.99363529 -1 9 C-1.33 9.66 -1.66 10.32 -2 11 C-4.32156597 11.40729228 -6.6568787 11.74438677 -9 12 C-6.2520787 7.72545575 -3.30749011 3.85873847 0 0 Z " fill="#136BC0" transform="translate(324,145)"/>
<path d="M0 0 C4.20233434 2.41952583 8.07927649 5.15555353 12 8 C10.68 8.33 9.36 8.66 8 9 C8 9.66 8 10.32 8 11 C7.01 11 6.02 11 5 11 C4.67 9.35 4.34 7.7 4 6 C3.01 5.67 2.02 5.34 1 5 C1 4.01 1 3.02 1 2 C0.34 1.67 -0.32 1.34 -1 1 C-0.67 0.67 -0.34 0.34 0 0 Z " fill="#0F6FCF" transform="translate(160,357)"/>
<path d="M0 0 C0.33 0 0.66 0 1 0 C1.35395298 3.71650627 1.03816974 5.9103841 -0.4375 9.375 C-3 12 -3 12 -5.26953125 12.375 C-7.54320283 12.375 -9.74224962 12.26050966 -12 12 C-12.33 11.34 -12.66 10.68 -13 10 C-11.576875 9.814375 -11.576875 9.814375 -10.125 9.625 C-6.91332809 9.28312823 -6.91332809 9.28312823 -5 7 C-4.34 7 -3.68 7 -3 7 C-2.67 6.34 -2.34 5.68 -2 5 C-1.34 5 -0.68 5 0 5 C0 3.35 0 1.7 0 0 Z " fill="#1463B2" transform="translate(311,341)"/>
<path d="M0 0 C2.31 0.66 4.62 1.32 7 2 C6.0625 10.03571429 6.0625 10.03571429 5 14 C4.16235732 12.04350603 3.33000941 10.08474444 2.5 8.125 C2.0359375 7.03445312 1.571875 5.94390625 1.09375 4.8203125 C0 2 0 2 0 0 Z " fill="#136FCC" transform="translate(399,178)"/>
<path d="M0 0 C0.99 0 1.98 0 3 0 C4.94984727 2.22839688 6.01969438 3.91462097 5.96484375 6.9375 C5.77942709 8.3163732 5.5669474 9.69186712 5.328125 11.0625 C4.93360819 13.39202785 4.92632936 15.64253963 5 18 C2.68622795 14.52934193 2.11015527 11.32959845 1.375 7.3125 C1.2409375 6.61060547 1.106875 5.90871094 0.96875 5.18554688 C0.6397283 3.45818294 0.31904688 1.72923409 0 0 Z " fill="#1462B4" transform="translate(87,278)"/>
<path d="M0 0 C1.0625 1.8125 1.0625 1.8125 2 4 C1.67 4.99 1.34 5.98 1 7 C-1.0625 7.6875 -1.0625 7.6875 -3 8 C-3.12375 8.763125 -3.2475 9.52625 -3.375 10.3125 C-4 13 -4 13 -6 16 C-6.66 16 -7.32 16 -8 16 C-6.57250019 12.20950293 -4.83763458 8.72877544 -2.875 5.1875 C-2.33617188 4.21167969 -1.79734375 3.23585937 -1.2421875 2.23046875 C-0.83226563 1.49441406 -0.42234375 0.75835937 0 0 Z " fill="#1360AB" transform="translate(109,152)"/>
<path d="M0 0 C3.33333333 3.33333333 6.66666667 6.66666667 10 10 C5.80884715 9.41789544 4.62457917 8.71843438 1 6 C1 9.3 1 12.6 1 16 C0.67 16 0.34 16 0 16 C0 10.72 0 5.44 0 0 Z " fill="#1764B0" transform="translate(208,243)"/>
<path d="M0 0 C0.433125 0.61875 0.86625 1.2375 1.3125 1.875 C2.99740483 4.2197245 2.99740483 4.2197245 6 6 C4.41132134 7.58867866 2.75310484 7.20794039 0.5625 7.25 C-0.24058594 7.27578125 -1.04367188 7.3015625 -1.87109375 7.328125 C-2.57363281 7.21984375 -3.27617187 7.1115625 -4 7 C-4.66 6.01 -5.32 5.02 -6 4 C-4.68 4.33 -3.36 4.66 -2 5 C-1.855625 4.360625 -1.71125 3.72125 -1.5625 3.0625 C-1 1 -1 1 0 0 Z " fill="#1267BB" transform="translate(187,330)"/>
<path d="M0 0 C0.33 0 0.66 0 1 0 C1 5.61 1 11.22 1 17 C0.67 17 0.34 17 0 17 C-0.33 14.03 -0.66 11.06 -1 8 C-2.32 7.67 -3.64 7.34 -5 7 C-4.19152271 5.83054208 -3.37810888 4.66449539 -2.5625 3.5 C-2.11003906 2.8503125 -1.65757812 2.200625 -1.19140625 1.53125 C-0.79824219 1.0259375 -0.40507812 0.520625 0 0 Z " fill="#14528D" transform="translate(314,214)"/>
<path d="M0 0 C7.24637681 -0.48309179 7.24637681 -0.48309179 10.4375 1.5625 C12.43656214 4.68103694 12.71860476 7.34186183 13 11 C12.67 10.01 12.34 9.02 12 8 C11.01 7.67 10.02 7.34 9 7 C9 6.01 9 5.02 9 4 C7.88625 3.8453125 7.88625 3.8453125 6.75 3.6875 C3.82985982 2.95746496 2.26812446 1.93210602 0 0 Z " fill="#1566BA" transform="translate(195,306)"/>
<path d="M0 0 C2.31 0 4.62 0 7 0 C7 0.99 7 1.98 7 3 C9.97 3.495 9.97 3.495 13 4 C13 4.99 13 5.98 13 7 C7.92990529 6.52467862 4.02506742 3.95637706 0 1 C0 0.67 0 0.34 0 0 Z " fill="#1263B6" transform="translate(216,268)"/>
<path d="M0 0 C0.66 1.32 1.32 2.64 2 4 C2.35320312 4.68320312 2.70640625 5.36640625 3.0703125 6.0703125 C3.59238281 7.08738281 3.59238281 7.08738281 4.125 8.125 C4.47820312 8.80820312 4.83140625 9.49140625 5.1953125 10.1953125 C6 12 6 12 6 14 C5.34 14 4.68 14 4 14 C4 13.01 4 12.02 4 11 C2.35 10.67 0.7 10.34 -1 10 C-0.67 6.7 -0.34 3.4 0 0 Z " fill="#1364B4" transform="translate(115,293)"/>
<path d="M0 0 C-0.66 1.32 -1.32 2.64 -2 4 C-2.33 3.34 -2.66 2.68 -3 2 C-4.8253125 2.2784375 -4.8253125 2.2784375 -6.6875 2.5625 C-10.02977939 2.98993182 -12.71968417 2.92258883 -16 2 C-16 1.67 -16 1.34 -16 1 C-5.62642369 -1.48063781 -5.62642369 -1.48063781 0 0 Z " fill="#116AC6" transform="translate(288,234)"/>
<path d="M0 0 C0.66 0 1.32 0 2 0 C2 0.66 2 1.32 2 2 C2.66 2 3.32 2 4 2 C4 6.29 4 10.58 4 15 C2.1316788 12.19751821 1.54583465 10.69445074 0.875 7.5 C0.70742188 6.7265625 0.53984375 5.953125 0.3671875 5.15625 C0 3 0 3 0 0 Z " fill="#1464B4" transform="translate(408,202)"/>
<path d="M0 0 C0.99 0 1.98 0 3 0 C1.64995627 4.41832494 0.00638894 6.64842388 -4 9 C-6.76127008 9.32274585 -9.20411246 9.1895517 -12 9 C-12 8.67 -12 8.34 -12 8 C-10.02 8 -8.04 8 -6 8 C-6 7.34 -6 6.68 -6 6 C-4.68 6 -3.36 6 -2 6 C-1.855625 5.195625 -1.71125 4.39125 -1.5625 3.5625 C-1 1 -1 1 0 0 Z " fill="#175FA5" transform="translate(152,170)"/>
<path d="M0 0 C2.97 0.495 2.97 0.495 6 1 C6 1.66 6 2.32 6 3 C6.99 3.33 7.98 3.66 9 4 C8.34 5.65 7.68 7.3 7 9 C4.03595495 6.19195732 1.55500981 3.81684226 0 0 Z " fill="#1469C3" transform="translate(110,335)"/>
<path d="M0 0 C0.66 0.33 1.32 0.66 2 1 C1.29445932 4.66881155 -0.27735506 7.70450534 -2 11 C-2.66 11 -3.32 11 -4 11 C-4.66 12.65 -5.32 14.3 -6 16 C-7.125 12.25 -7.125 12.25 -6 10 C-5.01 10 -4.02 10 -3 10 C-3.33 8.35 -3.66 6.7 -4 5 C-2.68 4.67 -1.36 4.34 0 4 C0 2.68 0 1.36 0 0 Z " fill="#1168BE" transform="translate(415,321)"/>
<path d="M0 0 C1 2 1 2 0.25 4.5625 C-1 7 -1 7 -4 8 C-4 10.97 -4 13.94 -4 17 C-6 15 -6 15 -6.375 11.75 C-5.8557351 6.557351 -3.62661574 3.62661574 0 0 Z " fill="#1565B5" transform="translate(214,187)"/>
<path d="M0 0 C0.99 0.33 1.98 0.66 3 1 C3.70211894 2.65204456 4.36971413 4.31923769 5 6 C5.66 6.33 6.32 6.66 7 7 C7 7.33 7 7.66 7 8 C9.97 8.495 9.97 8.495 13 9 C13 9.33 13 9.66 13 10 C6.375 10.25 6.375 10.25 3 8 C3 7.34 3 6.68 3 6 C2.34 6 1.68 6 1 6 C0.67 4.02 0.34 2.04 0 0 Z " fill="#125DA3" transform="translate(215,153)"/>
<path d="M0 0 C1.32310902 4.43393023 1.1353545 8.52636434 0 13 C-2.0625 15.0625 -2.0625 15.0625 -4 16 C-5.35304209 11.94087374 -4.15216503 10.22850409 -2.5625 6.3125 C-2.08941406 5.13300781 -1.61632812 3.95351563 -1.12890625 2.73828125 C-0.75636719 1.83464844 -0.38382812 0.93101562 0 0 Z " fill="#1262AC" transform="translate(406,287)"/>
<path d="M0 0 C0.99 0.495 0.99 0.495 2 1 C1.67 5.95 1.34 10.9 1 16 C1.99 16 2.98 16 4 16 C4.33 18.31 4.66 20.62 5 23 C1.16666667 20.44444444 1.16666667 20.44444444 0 17 C-0.23381674 14.07803533 -0.18814166 11.17880171 -0.125 8.25 C-0.11597656 7.45722656 -0.10695312 6.66445313 -0.09765625 5.84765625 C-0.07417012 3.89830719 -0.03830137 1.94911425 0 0 Z " fill="#185DA0" transform="translate(208,270)"/>
<path d="M0 0 C0.928125 0.20625 1.85625 0.4125 2.8125 0.625 C3.1425 2.935 3.4725 5.245 3.8125 7.625 C0.5125 5.645 -2.7875 3.665 -6.1875 1.625 C-3.1875 -0.375 -3.1875 -0.375 0 0 Z " fill="#176DCD" transform="translate(348.1875,114.375)"/>
<path d="M0 0 C0.60328125 0.33773438 1.2065625 0.67546875 1.828125 1.0234375 C2.62734375 1.46945312 3.4265625 1.91546875 4.25 2.375 C5.43335938 3.03628906 5.43335938 3.03628906 6.640625 3.7109375 C8.73914197 4.85747823 10.8536077 5.94649552 13 7 C11.02 7.33 9.04 7.66 7 8 C6.67 7.01 6.34 6.02 6 5 C4.35 5.33 2.7 5.66 1 6 C0.67 4.02 0.34 2.04 0 0 Z " fill="#0F6AC1" transform="translate(215,278)"/>
<path d="M0 0 C5.57142857 5.14285714 5.57142857 5.14285714 6 9 C4.35 9 2.7 9 1 9 C-1.125 3.375 -1.125 3.375 0 0 Z " fill="#1468BC" transform="translate(404,142)"/>
<path d="M0 0 C2.24107496 2.88138209 4.33168894 5.74679343 6 9 C5.67 9.99 5.34 10.98 5 12 C4.67 11.34 4.34 10.68 4 10 C3.34 10 2.68 10 2 10 C0.3125 8.375 0.3125 8.375 -1 6 C-0.6875 2.75 -0.6875 2.75 0 0 Z " fill="#136BC4" transform="translate(121,308)"/>
<path d="M0 0 C0.33 0.66 0.66 1.32 1 2 C-0.21484375 4.8203125 -0.21484375 4.8203125 -1.9375 8.125 C-2.50339844 9.22070312 -3.06929688 10.31640625 -3.65234375 11.4453125 C-4.09707031 12.28835937 -4.54179688 13.13140625 -5 14 C-5.33 14 -5.66 14 -6 14 C-6.29397316 9.00245633 -6.0979156 6.01581652 -3 2 C-2.01 1.34 -1.02 0.68 0 0 Z " fill="#1765B8" transform="translate(122,175)"/>
<path d="M0 0 C0.68359375 1.734375 0.68359375 1.734375 1 4 C-0.21484375 6.140625 -0.21484375 6.140625 -1.9375 8.25 C-2.50339844 8.95640625 -3.06929688 9.6628125 -3.65234375 10.390625 C-4.31943359 11.18726563 -4.31943359 11.18726563 -5 12 C-5.66 11.01 -6.32 10.02 -7 9 C-6.67 8.01 -6.34 7.02 -6 6 C-5.01 6.33 -4.02 6.66 -3 7 C-2.814375 5.5459375 -2.814375 5.5459375 -2.625 4.0625 C-2.41875 3.051875 -2.2125 2.04125 -2 1 C-1.34 0.67 -0.68 0.34 0 0 Z " fill="#146FCC" transform="translate(335,154)"/>
<path d="M0 0 C0.99 0 1.98 0 3 0 C1.49087042 4.98012761 -1.55661849 8.24259942 -5 12 C-5.66 11.34 -6.32 10.68 -7 10 C-6.34 9.01 -5.68 8.02 -5 7 C-4.34 7 -3.68 7 -3 7 C-2.690625 6.21625 -2.38125 5.4325 -2.0625 4.625 C-1 2 -1 2 0 0 Z " fill="#1567BC" transform="translate(402,341)"/>
<path d="M0 0 C1.64630328 0.14042877 3.29204179 0.28749329 4.9375 0.4375 C6.31228516 0.55931641 6.31228516 0.55931641 7.71484375 0.68359375 C10 1 10 1 11 2 C12.155 2.144375 13.31 2.28875 14.5 2.4375 C15.655 2.623125 16.81 2.80875 18 3 C18.33 3.66 18.66 4.32 19 5 C16.76980273 4.71632132 14.54086546 4.42272612 12.3125 4.125 C11.07113281 3.96257812 9.82976562 3.80015625 8.55078125 3.6328125 C5.42204705 3.07521631 2.87851898 2.30991877 0 1 C0 0.67 0 0.34 0 0 Z " fill="#135DA3" transform="translate(142,230)"/>
<path d="M0 0 C2.97 0.495 2.97 0.495 6 1 C6 1.66 6 2.32 6 3 C7.27875 3.144375 8.5575 3.28875 9.875 3.4375 C12.25692894 3.70642746 13.84452691 3.92226346 16 5 C16 5.66 16 6.32 16 7 C11.94393835 6.53199289 8.53411321 6.12046792 5 4 C5 3.34 5 2.68 5 2 C3.35 1.67 1.7 1.34 0 1 C0 0.67 0 0.34 0 0 Z " fill="#1461AD" transform="translate(217,212)"/>
<path d="M0 0 C0.33 0 0.66 0 1 0 C1.05382106 2.62527189 1.09358313 5.24944713 1.125 7.875 C1.14175781 8.62136719 1.15851563 9.36773437 1.17578125 10.13671875 C1.1933959 12.09194461 1.10320189 14.04742021 1 16 C0.34 16.66 -0.32 17.32 -1 18 C-0.67 13.38 -0.34 8.76 0 4 C-1.65 4.66 -3.3 5.32 -5 6 C-3.35830472 3.97945196 -1.69088222 1.97956942 0 0 Z " fill="#156BC0" transform="translate(313,272)"/>
<path d="M0 0 C0.33 0 0.66 0 1 0 C1 1.98 1 3.96 1 6 C0.01 6.495 0.01 6.495 -1 7 C-1.65772428 10.02934491 -1.65772428 10.02934491 -2 13 C-2.66 12.34 -3.32 11.68 -4 11 C-3.74755715 6.45602873 -3.20028496 3.33363017 0 0 Z " fill="#1168B9" transform="translate(314,157)"/>
<path d="M0 0 C1.37478516 0.01740234 1.37478516 0.01740234 2.77734375 0.03515625 C3.69644531 0.04417969 4.61554688 0.05320312 5.5625 0.0625 C6.27277344 0.07410156 6.98304688 0.08570312 7.71484375 0.09765625 C8.04484375 0.75765625 8.37484375 1.41765625 8.71484375 2.09765625 C0.79484375 2.59265625 0.79484375 2.59265625 -7.28515625 3.09765625 C-5.96515625 2.43765625 -4.64515625 1.77765625 -3.28515625 1.09765625 C-2.28515625 0.09765625 -2.28515625 0.09765625 0 0 Z " fill="#165CA7" transform="translate(130.28515625,117.90234375)"/>
<path d="M0 0 C0.5775 0.20625 1.155 0.4125 1.75 0.625 C-0.83556706 3.21056706 -2.8137749 3.88345081 -6.375 4 C-8.293125 3.814375 -8.293125 3.814375 -10.25 3.625 C-10.91 2.635 -11.57 1.645 -12.25 0.625 C-11.3425 0.83125 -10.435 1.0375 -9.5 1.25 C-5.58945745 1.70121645 -3.62833626 -0.60472271 0 0 Z " fill="#156BBF" transform="translate(324.25,170.375)"/>
<path d="M0 0 C0 0.99 0 1.98 0 3 C-1.0725 3.103125 -2.145 3.20625 -3.25 3.3125 C-6.85820872 3.97400493 -8.36395023 4.57483421 -11 7 C-8.76456876 1.59770784 -5.88000164 -0.49000014 0 0 Z " fill="#1764B4" transform="translate(262,72)"/>
<path d="M0 0 C3.72433382 1.2125738 7.37802806 2.50859979 11 4 C7.77208445 6.1519437 6.71599191 6.20086443 3 6 C3.33 5.01 3.66 4.02 4 3 C3.01 3 2.02 3 1 3 C0.67 2.01 0.34 1.02 0 0 Z " fill="#1269BF" transform="translate(192,378)"/>
<path d="M0 0 C-0.33 3.63 -0.66 7.26 -1 11 C-3.18975773 7.71536341 -3.99806563 4.79303725 -5 1 C-3 0 -3 0 0 0 Z " fill="#166CCA" transform="translate(296,335)"/>
<path d="M0 0 C0.33 0.66 0.66 1.32 1 2 C0.34 2 -0.32 2 -1 2 C-1 5.96 -1 9.92 -1 14 C-4 11 -4 11 -4.3125 8.0625 C-4.01283441 5.12577719 -3.62267339 3.43401009 -2 1 C-1.34 0.67 -0.68 0.34 0 0 Z " fill="#1B5DA1" transform="translate(87,135)"/>
<path d="M0 0 C0.33 0.66 0.66 1.32 1 2 C0.22265625 4.1640625 0.22265625 4.1640625 -0.9375 6.625 C-1.31777344 7.44226563 -1.69804687 8.25953125 -2.08984375 9.1015625 C-2.39019531 9.72804688 -2.69054687 10.35453125 -3 11 C-3.66 11 -4.32 11 -5 11 C-4.50769231 3.49230769 -4.50769231 3.49230769 -1.9375 1 C-1.298125 0.67 -0.65875 0.34 0 0 Z " fill="#1364B4" transform="translate(422,310)"/>
<path d="M0 0 C0 2.31 0 4.62 0 7 C-1.32 7 -2.64 7 -4 7 C-4.6875 5.1875 -4.6875 5.1875 -5 3 C-3.38441968 0.84589291 -2.74502455 0 0 0 Z " fill="#0E75DF" transform="translate(377,252)"/>
<path d="M0 0 C1.65 1.65 3.3 3.3 5 5 C2.35261084 6.4606285 1.10551666 7 -2 7 C-1.34 4.69 -0.68 2.38 0 0 Z " fill="#1271CC" transform="translate(132,327)"/>
<path d="M0 0 C2.64 0 5.28 0 8 0 C7.34 1.32 6.68 2.64 6 4 C4.35 4 2.7 4 1 4 C0.67 2.68 0.34 1.36 0 0 Z " fill="#116ECB" transform="translate(243,290)"/>
<path d="M0 0 C-0.60183749 2.02045442 -1.27306096 4.02111039 -2 6 C-2.99 6.495 -2.99 6.495 -4 7 C-4.99 6.67 -5.98 6.34 -7 6 C-7 5.34 -7 4.68 -7 4 C-6.34 4 -5.68 4 -5 4 C-5 3.34 -5 2.68 -5 2 C-2 0 -2 0 0 0 Z " fill="#0879E7" transform="translate(313,276)"/>
<path d="M0 0 C1.32 0 2.64 0 4 0 C3.67 3.3 3.34 6.6 3 10 C2.34 10 1.68 10 1 10 C1.33 8.02 1.66 6.04 2 4 C1.34 4 0.68 4 0 4 C0 2.68 0 1.36 0 0 Z " fill="#0A77E4" transform="translate(309,252)"/>
<path d="M0 0 C0.66 0.33 1.32 0.66 2 1 C1.67 3.31 1.34 5.62 1 8 C0.01 8 -0.98 8 -2 8 C-2.33 8.99 -2.66 9.98 -3 11 C-3.36923077 4.6 -3.36923077 4.6 -1.5 1.5625 C-1.005 1.046875 -0.51 0.53125 0 0 Z " fill="#1460AA" transform="translate(347,243)"/>
<path d="M0 0 C2.31 0 4.62 0 7 0 C7 0.99 7 1.98 7 3 C8.65 3 10.3 3 12 3 C12 3.33 12 3.66 12 4 C9.36 4.33 6.72 4.66 4 5 C3.67 4.01 3.34 3.02 3 2 C2.01 1.67 1.02 1.34 0 1 C0 0.67 0 0.34 0 0 Z " fill="#1272D9" transform="translate(277,216)"/>
<path d="M0 0 C2.42130331 2.42130331 2.52840504 3.80111377 3.125 7.125 C3.29257813 8.03507813 3.46015625 8.94515625 3.6328125 9.8828125 C3.81457031 10.93082031 3.81457031 10.93082031 4 12 C3.01 12 2.02 12 1 12 C0.45533613 7.915021 0 4.1274515 0 0 Z " fill="#1365B5" transform="translate(145,132)"/>
<path d="M0 0 C1.32 0 2.64 0 4 0 C4 0.66 4 1.32 4 2 C5.98 1.67 7.96 1.34 10 1 C10.33 2.65 10.66 4.3 11 6 C6.49197399 4.74194623 3.5087188 3.09592835 0 0 Z " fill="#1063AE" transform="translate(168,391)"/>
<path d="M0 0 C0.598125 0.20625 1.19625 0.4125 1.8125 0.625 C1.8125 1.945 1.8125 3.265 1.8125 4.625 C2.4725 4.625 3.1325 4.625 3.8125 4.625 C3.4825 5.285 3.1525 5.945 2.8125 6.625 C0.1725 4.975 -2.4675 3.325 -5.1875 1.625 C-2.1875 -0.375 -2.1875 -0.375 0 0 Z " fill="#1565B8" transform="translate(158.1875,380.375)"/>
<path d="M0 0 C2.97 0.99 5.94 1.98 9 3 C9 3.33 9 3.66 9 4 C4.545 4.495 4.545 4.495 0 5 C0 3.35 0 1.7 0 0 Z " fill="#116EC8" transform="translate(226,257)"/>
<path d="M0 0 C0.99 0.66 1.98 1.32 3 2 C-1.8333472 2.08333357 -6.23692563 1.95261487 -11 1 C-7.22301161 -1.56835211 -4.3286606 -0.94443504 0 0 Z " fill="#1665B6" transform="translate(247,250)"/>
<path d="M0 0 C0.99 0.66 1.98 1.32 3 2 C2.67 2.99 2.34 3.98 2 5 C1.01 5 0.02 5 -1 5 C-1 5.66 -1 6.32 -1 7 C-1.99 7 -2.98 7 -4 7 C-4 6.01 -4 5.02 -4 4 C-3.01 4 -2.02 4 -1 4 C-0.67 2.68 -0.34 1.36 0 0 Z " fill="#1177E4" transform="translate(349,247)"/>
<path d="M0 0 C1.62580966 0.11398665 3.25067157 0.24155659 4.875 0.375 C5.77992188 0.44460937 6.68484375 0.51421875 7.6171875 0.5859375 C10 1 10 1 12 3 C6.71502591 4.05699482 6.71502591 4.05699482 4 4 C1.5 2.0625 1.5 2.0625 0 0 Z " fill="#1370CB" transform="translate(239,234)"/>
<path d="M0 0 C1.45947705 0.06006078 2.91779272 0.1488689 4.375 0.25 C5.59316406 0.31960938 5.59316406 0.31960938 6.8359375 0.390625 C9 1 9 1 10.2890625 3.046875 C10.64097656 4.01367188 10.64097656 4.01367188 11 5 C9.53932801 4.54917531 8.08151968 4.08906463 6.625 3.625 C5.81289062 3.36976563 5.00078125 3.11453125 4.1640625 2.8515625 C2 2 2 2 0 0 Z " fill="#165FAB" transform="translate(187,401)"/>
<path d="M0 0 C0.6875 2.0625 0.6875 2.0625 1 4 C0.01 4.33 -0.98 4.66 -2 5 C-4.6875 3.0625 -4.6875 3.0625 -7 1 C-3.375 -1.125 -3.375 -1.125 0 0 Z " fill="#126BC5" transform="translate(222,294)"/>
<path d="M0 0 C-0.125 1.8125 -0.125 1.8125 -1 4 C-4.0625 5.75 -4.0625 5.75 -7 7 C-4.60526316 0 -4.60526316 0 0 0 Z " fill="#1569C5" transform="translate(306,266)"/>
<path d="M0 0 C2.68433048 2.45091043 3.91789741 4.28241384 4.09765625 8.04296875 C4.06510417 10.02864583 4.03255208 12.01432292 4 14 C2.58622659 11.36095629 1.62759865 8.92879371 1 6 C0.67 6 0.34 6 0 6 C0 4.02 0 2.04 0 0 Z " fill="#1069C1" transform="translate(416,161)"/>
<path d="M0 0 C2.35953094 2.35953094 2.49141413 3.77895617 3 7 C1.68 7 0.36 7 -1 7 C-1.66 6.34 -2.32 5.68 -3 5 C-2.75 2.9375 -2.75 2.9375 -2 1 C-1.34 0.67 -0.68 0.34 0 0 Z " fill="#106FCF" transform="translate(148,144)"/>
<path d="M0 0 C-1.32 0.33 -2.64 0.66 -4 1 C-4.33 2.32 -4.66 3.64 -5 5 C-5.99 5 -6.98 5 -8 5 C-8 4.34 -8 3.68 -8 3 C-8.99 2.67 -9.98 2.34 -11 2 C-9.54494642 1.47007308 -8.08581873 0.9513211 -6.625 0.4375 C-5.81289062 0.14746094 -5.00078125 -0.14257812 -4.1640625 -0.44140625 C-2 -1 -2 -1 0 0 Z " fill="#1161AF" transform="translate(123,122)"/>
<path d="M0 0 C1.48206495 0.254496 2.96068615 0.52911762 4.4375 0.8125 C5.67306641 1.03873047 5.67306641 1.03873047 6.93359375 1.26953125 C7.61550781 1.51058594 8.29742187 1.75164062 9 2 C9.33 2.99 9.66 3.98 10 5 C6.37 4.01 2.74 3.02 -1 2 C-0.67 1.34 -0.34 0.68 0 0 Z " fill="#1669BE" transform="translate(305,97)"/>
<path d="M0 0 C0.5534764 2.07553648 1 3.84365964 1 6 C-1.375 6.625 -1.375 6.625 -4 7 C-4.66 6.34 -5.32 5.68 -6 5 C-4.02 3.35 -2.04 1.7 0 0 Z " fill="#106BC1" transform="translate(359,356)"/>
<path d="M0 0 C0.89694794 3.58779175 1.08304117 6.34618837 1 10 C-0.32 9.67 -1.64 9.34 -3 9 C-2.01 6.03 -1.02 3.06 0 0 Z " fill="#0F5FAF" transform="translate(94,184)"/>
<path d="M0 0 C-0.66 0 -1.32 0 -2 0 C-2.33 0.99 -2.66 1.98 -3 3 C-5.97 2.67 -8.94 2.34 -12 2 C-4.86956522 -1.56521739 -4.86956522 -1.56521739 0 0 Z " fill="#1864B6" transform="translate(241,177)"/>
<path d="M0 0 C2.52480693 2.52480693 2.55738633 4.13823034 3.125 7.625 C3.29257813 8.62789062 3.46015625 9.63078125 3.6328125 10.6640625 C3.75398437 11.43492187 3.87515625 12.20578125 4 13 C3.01 12.67 2.02 12.34 1 12 C0.67 8.04 0.34 4.08 0 0 Z " fill="#136ABA" transform="translate(151,153)"/>
<path d="M0 0 C-4.75 3.875 -4.75 3.875 -7 5 C-7 4.34 -7 3.68 -7 3 C-8.65 3 -10.3 3 -12 3 C-3.33333333 -1.66666667 -3.33333333 -1.66666667 0 0 Z " fill="#0E5EA8" transform="translate(310,386)"/>
<path d="M0 0 C1 2 1 2 0.25 4.5625 C-1 7 -1 7 -4 8 C-4.33 7.01 -4.66 6.02 -5 5 C-3.35 3.35 -1.7 1.7 0 0 Z " fill="#1264B3" transform="translate(374,342)"/>
<path d="M0 0 C0.33 0.66 0.66 1.32 1 2 C0.06421005 4.35981813 -0.93347808 6.69631264 -2 9 C-2.99 9 -3.98 9 -5 9 C-3.7508258 5.54074837 -2.32472205 2.85306797 0 0 Z " fill="#1261AC" transform="translate(391,320)"/>
<path d="M0 0 C4.29 0.99 8.58 1.98 13 3 C13 3.33 13 3.66 13 4 C11.58344207 4.0272415 10.16672955 4.04650467 8.75 4.0625 C7.56664062 4.07990234 7.56664062 4.07990234 6.359375 4.09765625 C4.09308998 4.00385306 2.1711105 3.63241063 0 3 C0 2.01 0 1.02 0 0 Z " fill="#1363B2" transform="translate(228,285)"/>
<path d="M0 0 C4.95 0 9.9 0 15 0 C11.2311658 1.8844171 9.31987525 2.33429462 5.25 2.625 C4.26515625 2.69976562 3.2803125 2.77453125 2.265625 2.8515625 C1.51796875 2.90054688 0.7703125 2.94953125 0 3 C0 2.01 0 1.02 0 0 Z " fill="#1161AD" transform="translate(272,220)"/>
<path d="M0 0 C0.66 0.33 1.32 0.66 2 1 C0.625 3.5 0.625 3.5 -1 6 C-1.66 6 -2.32 6 -3 6 C-2.67 7.98 -2.34 9.96 -2 12 C-2.66 11.67 -3.32 11.34 -4 11 C-4.36630156 7.06225823 -4.30233203 5.43460229 -2 2.125 C-1.34 1.42375 -0.68 0.7225 0 0 Z " fill="#164D83" transform="translate(142,216)"/>
<path d="M0 0 C1.32 0 2.64 0 4 0 C3.25 6.625 3.25 6.625 1 10 C1.020625 9.278125 1.04125 8.55625 1.0625 7.8125 C1.00179441 5.08074862 0.60741465 2.65743909 0 0 Z " fill="#106BC2" transform="translate(112,189)"/>
<path d="M0 0 C4.29 0.99 8.58 1.98 13 3 C13 3.33 13 3.66 13 4 C11.58506449 4.10884119 10.16767057 4.18597617 8.75 4.25 C7.96109375 4.29640625 7.1721875 4.3428125 6.359375 4.390625 C4 4 4 4 0 0 Z " fill="#165D9F" transform="translate(86,150)"/>
<path d="M0 0 C4.8 3.32307692 4.8 3.32307692 5.8125 6.75 C5.874375 7.4925 5.93625 8.235 6 9 C5.34 8.67 4.68 8.34 4 8 C4 7.34 4 6.68 4 6 C2.68 5.67 1.36 5.34 0 5 C0 3.35 0 1.7 0 0 Z " fill="#1666B2" transform="translate(139,120)"/>
<path d="M0 0 C2.97 0.33 5.94 0.66 9 1 C8.67 1.99 8.34 2.98 8 4 C7.01 3.67 6.02 3.34 5 3 C2.85744207 3.38932856 2.85744207 3.38932856 1 4 C0.67 2.68 0.34 1.36 0 0 Z " fill="#116DCA" transform="translate(298,75)"/>
<path d="M0 0 C2.18975773 3.28463659 2.99806563 6.20696275 4 10 C3.01 10 2.02 10 1 10 C-0.1577506 6.52674819 -0.06866652 3.63932552 0 0 Z " fill="#1366B5" transform="translate(307,331)"/>
<path d="M0 0 C1.74627478 2.61941217 2.38722388 4.03824877 3 7 C0.03 6.505 0.03 6.505 -3 6 C-2 3 -2 3 0 0 Z " fill="#136ECC" transform="translate(304,324)"/>
<path d="M0 0 C1.65 0 3.3 0 5 0 C5.66 1.32 6.32 2.64 7 4 C7.99 4 8.98 4 10 4 C10 4.66 10 5.32 10 6 C6.40992874 4.66654496 3.20429093 3.1056769 0 1 C0 0.67 0 0.34 0 0 Z " fill="#135DA8" transform="translate(215,240)"/>
<path d="M0 0 C0.66 0.33 1.32 0.66 2 1 C1.67 5.62 1.34 10.24 1 15 C0.67 15 0.34 15 0 15 C-0.19448477 12.87562788 -0.38038289 10.75046809 -0.5625 8.625 C-0.66691406 7.44164062 -0.77132813 6.25828125 -0.87890625 5.0390625 C-1 2 -1 2 0 0 Z " fill="#116BC2" transform="translate(413,219)"/>
<path d="M0 0 C4.455 0.99 4.455 0.99 9 2 C5 4 5 4 1 4 C0.67 2.68 0.34 1.36 0 0 Z " fill="#1663B0" transform="translate(160,217)"/>
<path d="M0 0 C2.475 0.495 2.475 0.495 5 1 C5 2.32 5 3.64 5 5 C5.66 5.33 6.32 5.66 7 6 C6.67 6.66 6.34 7.32 6 8 C1.125 3.375 1.125 3.375 0 0 Z " fill="#0F62B7" transform="translate(210,204)"/>
<path d="M0 0 C0.99 0 1.98 0 3 0 C4.4216319 3.3171411 5.39009109 6.44219804 6 10 C3.25722422 6.80009492 1.3697164 3.99500618 0 0 Z " fill="#1366B6" transform="translate(393,168)"/>
<path d="M0 0 C1.98 0.99 1.98 0.99 4 2 C4 4.64 4 7.28 4 10 C1.16625119 6.79663178 0.4794463 4.21912747 0 0 Z " fill="#1364B4" transform="translate(211,142)"/>
<path d="M0 0 C1.98 1.65 3.96 3.3 6 5 C3.3333581 6.33332095 1.83319697 5.67102033 -1 5 C-0.67 3.35 -0.34 1.7 0 0 Z " fill="#1063B4" transform="translate(377,112)"/>
<path d="M0 0 C2.91517292 1.07401108 4.77810176 1.77810176 7 4 C6.01 4.495 6.01 4.495 5 5 C4.34 4.67 3.68 4.34 3 4 C2.67 4.66 2.34 5.32 2 6 C1.34 4.02 0.68 2.04 0 0 Z " fill="#1072D2" transform="translate(177,370)"/>
<path d="M0 0 C0.99 0 1.98 0 3 0 C2.625 2.9375 2.625 2.9375 2 6 C1.01 6.495 1.01 6.495 0 7 C-1.125 2.25 -1.125 2.25 0 0 Z " fill="#156FCF" transform="translate(204,314)"/>
<path d="M0 0 C1.0625 1.8125 1.0625 1.8125 2 4 C1.67 4.99 1.34 5.98 1 7 C0.01 7 -0.98 7 -2 7 C-1.125 1.125 -1.125 1.125 0 0 Z " fill="#0C66BD" transform="translate(109,152)"/>
<path d="M0 0 C1.45947705 0.06006078 2.91779272 0.1488689 4.375 0.25 C5.59316406 0.31960937 5.59316406 0.31960937 6.8359375 0.390625 C9 1 9 1 10.2890625 3.046875 C10.64097656 4.01367188 10.64097656 4.01367188 11 5 C9.53932801 4.54917531 8.08151968 4.08906463 6.625 3.625 C5.81289063 3.36976562 5.00078125 3.11453125 4.1640625 2.8515625 C2 2 2 2 0 0 Z " fill="#175FAC" transform="translate(322,105)"/>
<path d="M0 0 C1.98 0.99 3.96 1.98 6 3 C6 3.33 6 3.66 6 4 C3.36 4.33 0.72 4.66 -2 5 C-1.34 3.35 -0.68 1.7 0 0 Z " fill="#0E6DC8" transform="translate(357,98)"/>
<path d="M0 0 C1.98 0.66 3.96 1.32 6 2 C6.33 3.65 6.66 5.3 7 7 C5.83040013 6.02433888 4.66438823 5.044375 3.5 4.0625 C2.8503125 3.51722656 2.200625 2.97195313 1.53125 2.41015625 C1.0259375 1.94480469 0.520625 1.47945313 0 1 C0 0.67 0 0.34 0 0 Z " fill="#1667BD" transform="translate(131,361)"/>
<path d="M0 0 C0.33 0 0.66 0 1 0 C1.12375 0.7425 1.2475 1.485 1.375 2.25 C1.95486701 4.80141485 2.73708739 6.7267573 4 9 C3.01 10.485 3.01 10.485 2 12 C0.00214565 7.8794254 -0.17835515 4.54805635 0 0 Z " fill="#125EA5" transform="translate(288,324)"/>
<path d="M0 0 C-0.33 2.64 -0.66 5.28 -1 8 C-3.35953094 5.64046906 -3.49141413 4.22104383 -4 1 C-2 0 -2 0 0 0 Z " fill="#1364B4" transform="translate(100,306)"/>
<path d="M0 0 C-4.77830905 2.91360308 -7.55106131 3.19876651 -13 2 C-13 1.67 -13 1.34 -13 1 C-11.58622218 0.63447197 -10.16879424 0.28304505 -8.75 -0.0625 C-7.96109375 -0.25972656 -7.1721875 -0.45695312 -6.359375 -0.66015625 C-3.89605178 -1.01497267 -2.34395868 -0.76877544 0 0 Z " fill="#134D89" transform="translate(287,261)"/>
<path d="M0 0 C0.66 0 1.32 0 2 0 C2.33 2.31 2.66 4.62 3 7 C2.01 7.495 2.01 7.495 1 8 C-0.35439668 5.29120665 -0.06501451 2.99066732 0 0 Z " fill="#1761AB" transform="translate(335,148)"/>
<path d="M0 0 C0.33 1.65 0.66 3.3 1 5 C-0.32 4.67 -1.64 4.34 -3 4 C-3.33 4.66 -3.66 5.32 -4 6 C-4 4.35 -4 2.7 -4 1 C-2 0 -2 0 0 0 Z " fill="#106DCC" transform="translate(230,143)"/>
<path d="M0 0 C4.875 2.625 4.875 2.625 6 6 C4.35 6 2.7 6 1 6 C1.33 4.68 1.66 3.36 2 2 C1.34 2 0.68 2 0 2 C0 1.34 0 0.68 0 0 Z " fill="#0E6DCE" transform="translate(371,108)"/>
<path d="M0 0 C0.99 0.33 1.98 0.66 3 1 C2.67 2.98 2.34 4.96 2 7 C0.68 5.68 -0.64 4.36 -2 3 C-1.34 2.34 -0.68 1.68 0 1 C0 0.67 0 0.34 0 0 Z " fill="#0F7AE6" transform="translate(202,309)"/>
<path d="M0 0 C1.32 0 2.64 0 4 0 C4 1.32 4 2.64 4 4 C4.99 4.33 5.98 4.66 7 5 C4.625 4.75 4.625 4.75 2 4 C0.6875 1.9375 0.6875 1.9375 0 0 Z " fill="#175DA4" transform="translate(345,254)"/>
<path d="M0 0 C0.33 0 0.66 0 1 0 C1 1.65 1 3.3 1 5 C-0.98 5.33 -2.96 5.66 -5 6 C-4.34 5.67 -3.68 5.34 -3 5 C-2.30062468 3.68352881 -1.63270867 2.34977849 -1 1 C-0.67 0.67 -0.34 0.34 0 0 Z " fill="#185FAA" transform="translate(313,244)"/>
<path d="M0 0 C-0.99 1.485 -0.99 1.485 -2 3 C-4.64 2.67 -7.28 2.34 -10 2 C-10 1.67 -10 1.34 -10 1 C-6.59437148 0.22157062 -3.49234244 -0.09978121 0 0 Z " fill="#1261AC" transform="translate(282,234)"/>
<path d="M0 0 C0.66 0.33 1.32 0.66 2 1 C1.67 2.32 1.34 3.64 1 5 C-0.98 5 -2.96 5 -5 5 C-3.35 3.35 -1.7 1.7 0 0 Z " fill="#1565B6" transform="translate(307,222)"/>
<path d="M0 0 C-0.66 1.32 -1.32 2.64 -2 4 C-3.65 3.67 -5.3 3.34 -7 3 C-4.49955934 -0.00052879 -4.2621484 0 0 0 Z " fill="#1463AD" transform="translate(95,132)"/>
<path d="M0 0 C5.75 1.875 5.75 1.875 8 3 C8 3.99 8 4.98 8 6 C4.63408134 4.55746343 2.48952921 2.66735273 0 0 Z " fill="#155DA3" transform="translate(352,122)"/>
</svg>
