<?xml version="1.0" encoding="UTF-8"?>
<svg version="1.1" xmlns="http://www.w3.org/2000/svg" width="503" height="409">
<path d="M0 0 C4.13567949 2.89215931 8.10435517 5.9922923 12.05859375 9.12597656 C14.30033638 10.90056444 16.55646551 12.65519502 18.81738281 14.40527344 C21.88469083 16.78068552 24.94729691 19.16189083 28.00488281 21.54980469 C37.26544115 28.77881515 46.60762891 35.90195585 55.94165039 43.03564453 C63.42155073 48.75333535 70.88182605 54.49627848 78.34082031 60.24121094 C84.46792938 64.95787163 90.60350219 69.66319155 96.74707031 74.35839844 C104.95911076 80.63443024 113.15236094 86.93444299 121.34082031 93.24121094 C122.38238281 94.04300781 123.42394531 94.84480469 124.49707031 95.67089844 C125.02405518 96.07663086 125.55104004 96.48236328 126.09399414 96.90039062 C129.88964714 99.82038428 133.69507325 102.72736738 137.50317383 105.63110352 C140.39786707 107.84027119 143.28867367 110.05446867 146.17773438 112.27099609 C147.50954678 113.29263888 148.84216547 114.31323192 150.17578125 115.33251953 C158.5997063 121.78313233 166.55656398 128.54838192 174.24707031 135.85839844 C175.21193359 136.74398437 175.21193359 136.74398437 176.19628906 137.64746094 C203.31374003 163.31106255 217.6216768 202.08758906 219.17236328 238.77709961 C220.30777477 281.86400808 202.42043466 319.24834849 173.81347656 350.51855469 C163.35843784 361.35127954 151.16727573 370.20071313 138.24707031 377.85839844 C137.63089844 378.22674805 137.01472656 378.59509766 136.37988281 378.97460938 C94.92792792 403.35935631 43.07461041 408.99734944 -3.30078125 397.50195312 C-34.66671024 389.27011433 -61.11389996 373.85637156 -84.75292969 351.85839844 C-85.419375 351.24609375 -86.08582031 350.63378906 -86.77246094 350.00292969 C-110.05434139 327.76422922 -128.46799379 293.71553759 -129.86865234 261.16943359 C-129.99152301 255.39451224 -129.9141298 249.63175075 -129.75292969 243.85839844 C-130.419375 244.40367187 -131.08582031 244.94894531 -131.77246094 245.51074219 C-201.25292969 302.35839844 -201.25292969 302.35839844 -204.01074219 304.61230469 C-205.82129696 306.09530895 -207.62866154 307.58221762 -209.43261719 309.07324219 C-212.19389082 311.35029247 -214.97184177 313.60560402 -217.75292969 315.85839844 C-218.2661377 316.28330566 -218.7793457 316.70821289 -219.30810547 317.14599609 C-231.50559196 327.22088986 -243.59551768 333.27537001 -259.75292969 331.85839844 C-266.34702927 330.30485897 -271.409499 328.22381281 -275.75292969 322.85839844 C-277.08324219 321.40433594 -277.08324219 321.40433594 -278.44042969 319.92089844 C-283.50996935 313.20718375 -283.48588165 305.96785409 -282.75292969 297.85839844 C-279.61785619 283.11561608 -269.31472438 274.05065251 -257.82666016 265.41748047 C-255.73977494 263.84850837 -253.66857192 262.26077177 -251.60058594 260.66699219 C-248.05252054 257.93622178 -244.49226119 255.22192898 -240.92773438 252.51269531 C-237.28102805 249.73877501 -233.64213862 246.95464311 -230.00292969 244.17089844 C-229.29442871 243.62916992 -228.58592773 243.08744141 -227.85595703 242.52929688 C-221.47843142 237.65175581 -215.11384021 232.75758457 -208.75292969 227.85839844 C-200.86669698 221.78440607 -192.96851206 215.72651827 -185.05957031 209.68212891 C-178.61346077 204.75454607 -172.18108551 199.80937703 -165.75292969 194.85839844 C-157.86669698 188.78440607 -149.96851206 182.72651827 -142.05957031 176.68212891 C-135.61346077 171.75454607 -129.18108551 166.80937703 -122.75292969 161.85839844 C-115.40757422 156.20099082 -108.05457662 150.55382762 -100.69042969 144.92089844 C-99.9637207 144.36490967 -99.23701172 143.8089209 -98.48828125 143.23608398 C-97.80088867 142.71054932 -97.11349609 142.18501465 -96.40527344 141.64355469 C-95.79675537 141.17828369 -95.1882373 140.7130127 -94.5612793 140.23364258 C-92.63179602 138.76627667 -90.69275809 137.31205014 -88.75292969 135.85839844 C-90.02111542 135.85475281 -91.28930115 135.85110718 -92.59591675 135.84735107 C-104.57189639 135.81034253 -116.5476203 135.75250551 -128.52340508 135.6744957 C-134.67967642 135.63505743 -140.8358055 135.60285085 -146.9921875 135.58740234 C-152.93811709 135.57221202 -158.88365548 135.5377235 -164.82941055 135.49008942 C-167.09305539 135.47530025 -169.35675608 135.46735885 -171.62044907 135.46651459 C-174.80158506 135.46413584 -177.98164787 135.43698185 -181.16259766 135.40429688 C-182.55335762 135.41184242 -182.55335762 135.41184242 -183.97221375 135.41954041 C-193.21422975 135.27349115 -201.17368307 132.43764505 -207.75292969 125.85839844 C-211.3957377 121.46190601 -212.0133257 116.42929504 -211.75292969 110.85839844 C-209.25097834 99.93271739 -204.07886295 94.4187897 -194.95996094 88.47167969 C-184.2584234 83.08832402 -173.78408255 83.41528982 -162.07470703 83.42602539 C-160.08310339 83.41699916 -158.09150529 83.40666984 -156.09991455 83.3951416 C-150.71636607 83.36764669 -145.33292322 83.35829727 -139.94931364 83.35228753 C-134.31452496 83.34288431 -128.67981458 83.31667934 -123.04507446 83.2922821 C-112.38521692 83.24866701 -101.72537461 83.22008937 -91.06545508 83.19695872 C-78.92514293 83.16988031 -66.78490974 83.12597041 -54.64465404 83.08067 C-29.68078877 82.98789517 -4.71689874 82.91618163 20.24707031 82.85839844 C18.84330719 81.60056452 17.43806528 80.34438086 16.03222656 79.08886719 C15.24984619 78.38914795 14.46746582 77.68942871 13.66137695 76.96850586 C10.57693531 74.2726995 7.38855324 71.72794412 4.17675781 69.18652344 C0.53286235 66.29084118 -3.079642 63.35769492 -6.69042969 60.42089844 C-7.38595947 59.85540283 -8.08148926 59.28990723 -8.7980957 58.70727539 C-13.48326717 54.89599337 -18.16254284 51.07765439 -22.82714844 47.24121094 C-25.13039302 45.36540427 -27.44598058 43.50973988 -29.77246094 41.66308594 C-30.48144531 41.09654297 -31.19042969 40.53 -31.92089844 39.94628906 C-33.3084951 38.83798098 -34.70017473 37.73475738 -36.09667969 36.63769531 C-46.64403876 28.18507123 -46.64403876 28.18507123 -48.75292969 21.85839844 C-49.37800034 14.48256473 -47.90609699 9.66234228 -43.16308594 3.94042969 C-31.91119151 -7.2163113 -13.09613514 -8.52890361 0 0 Z M-28.75292969 160.85839844 C-29.34074219 161.30183594 -29.92855469 161.74527344 -30.53417969 162.20214844 C-47.13707709 175.04589926 -57.88354134 196.87268441 -60.87597656 217.31225586 C-61.26711079 220.48870541 -61.53021555 223.66616241 -61.75292969 226.85839844 C-61.82382813 227.72335938 -61.89472656 228.58832031 -61.96777344 229.47949219 C-62.8947704 251.46786024 -53.52237336 273.02347593 -39.19042969 289.23339844 C-37.72218487 290.78547038 -36.24350217 292.3277568 -34.75292969 293.85839844 C-34.09550781 294.56609375 -33.43808594 295.27378906 -32.76074219 296.00292969 C-27.91464702 301.09230272 -22.63336171 305.03475851 -16.75292969 308.85839844 C-16.02976562 309.36113281 -15.30660156 309.86386719 -14.56152344 310.38183594 C-2.58071303 318.25791652 12.2067113 322.55518994 26.24707031 324.85839844 C26.98183594 324.98859375 27.71660156 325.11878906 28.47363281 325.25292969 C56.53495431 329.31586234 86.76726263 322.18889434 109.62207031 305.42089844 C111.5134937 303.92053962 113.38935726 302.40030027 115.24707031 300.85839844 C116.10816406 300.16101563 116.96925781 299.46363281 117.85644531 298.74511719 C135.27160342 283.95304967 146.77734616 262.60979666 149.24707031 239.85839844 C150.17134534 224.15858564 148.50089419 209.43642475 142.24707031 194.85839844 C141.63412109 193.42947266 141.63412109 193.42947266 141.00878906 191.97167969 C129.63875408 167.470055 107.95422458 150.57003284 83.24707031 140.85839844 C45.05363035 127.46074572 1.98115905 134.57852546 -28.75292969 160.85839844 Z " fill="#FFFFFF" transform="translate(283.7529296875,6.1416015625)"/>
<path d="M0 0 C12.49682885 10.50738005 20.96606443 22.71831455 23.52734375 39.125 C24.48007434 56.87876808 21.5740133 72.03581579 9.61572266 85.95068359 C-2.19589757 99.01386622 -18.2752357 108.06129587 -36.046875 109.30517578 C-58.12828118 110.36736756 -76.57269823 106.14391921 -93.47265625 91.125 C-94.12105469 90.55910156 -94.76945312 89.99320312 -95.4375 89.41015625 C-100.22910236 84.9540709 -103.36431194 79.84615547 -106.47265625 74.125 C-106.86582031 73.41988281 -107.25898438 72.71476562 -107.6640625 71.98828125 C-114.24778414 59.62254577 -114.38543949 44.0190101 -110.91015625 30.625 C-105.15650217 13.66164057 -93.60605166 0.97783812 -77.8828125 -7.29296875 C-52.3596264 -19.13362209 -22.56216624 -17.4931333 0 0 Z " fill="#FFFFFF" transform="translate(374.47265625,185.875)"/>
</svg>
