<?xml version="1.0" encoding="UTF-8"?>
<svg version="1.1" xmlns="http://www.w3.org/2000/svg" width="800" height="800">
<path d="M0 0 C0.2165625 1.7015625 0.2165625 1.7015625 0.4375 3.4375 C0.61171478 6.80777201 0.61171478 6.80777201 2 8 C2.04063832 9.66617115 2.042721 11.33388095 2 13 C2.66 13 3.32 13 4 13 C4.13277344 13.85464844 4.26554688 14.70929688 4.40234375 15.58984375 C4.57894531 16.69457031 4.75554687 17.79929687 4.9375 18.9375 C5.11152344 20.03964844 5.28554688 21.14179688 5.46484375 22.27734375 C5.71845136 24.90426929 5.71845136 24.90426929 7 26 C7.29996968 27.99583789 7.56444909 29.99704682 7.8125 32 C8.41843074 36.19140062 9.09950339 39.71313686 11 43.5 C13.31956602 48.14772302 13.89475572 52.76331566 14.5078125 57.88671875 C15.01693039 61.1070914 15.92583384 63.92635602 17 67 C17.54206628 69.01524164 18.06312899 71.03625635 18.5625 73.0625 C18.81128906 74.06410156 19.06007813 75.06570313 19.31640625 76.09765625 C19.54199219 77.05542969 19.76757812 78.01320313 20 79 C20.24878906 79.85078125 20.49757813 80.7015625 20.75390625 81.578125 C21.08104729 84.79760821 20.1612847 86.02567182 18.375 88.6875 C12.34936177 97.76820244 12.34936177 97.76820244 9 108 C10.54183752 110.51208128 12.08047608 112.74597649 13.875 115.0625 C18.30296141 120.90813297 20.44862741 124.47053665 20 132 C19.25764955 135.36729588 18.26264726 138.64277548 17.25 141.9375 C16.69561995 143.79879664 16.14356009 145.66078582 15.59375 147.5234375 C15.32175781 148.44350586 15.04976562 149.36357422 14.76953125 150.31152344 C13.29894321 155.44925043 12.08313542 160.64667446 10.859375 165.84765625 C10 169 10 169 8.9140625 171.109375 C7.7448685 173.52770788 7.72538269 175.51191527 7.625 178.1875 C7.2743451 183.00741105 6.10927778 186.33641367 3.9765625 190.6171875 C2.45372119 194.3329203 2.06620346 198.15693782 1.50390625 202.11328125 C0.82316637 206.01302363 -0.46089462 209.36211455 -2 213 C-9.46129097 211.89888437 -16.62115064 210.09035723 -23.83740234 207.94067383 C-28.49773712 206.58560491 -33.1603618 205.54507633 -37.92578125 204.62109375 C-46.04277542 203.03678238 -54.05347986 201.10918801 -62.07299805 199.09326172 C-64.45799301 198.49485823 -66.84508417 197.90538519 -69.23242188 197.31640625 C-70.7787788 196.93021955 -72.3250076 196.54351935 -73.87109375 196.15625 C-74.91975868 195.89829651 -74.91975868 195.89829651 -75.98960876 195.63513184 C-80.80902088 194.41345254 -85.36877808 192.81065462 -90 191 C-90 190.34 -90 189.68 -90 189 C-90.66 189 -91.32 189 -92 189 C-92.33 187.02 -92.66 185.04 -93 183 C-93.66 183 -94.32 183 -95 183 C-95.495 180.525 -95.495 180.525 -96 178 C-96.99 177.67 -97.98 177.34 -99 177 C-101.7667759 174.02827774 -102 173.25809375 -102 169 C-102.78648926 168.96036133 -103.57297852 168.92072266 -104.38330078 168.87988281 C-107.96515651 168.68872377 -111.54478285 168.46964522 -115.125 168.25 C-116.3625 168.188125 -117.6 168.12625 -118.875 168.0625 C-130.13836853 167.33583106 -130.13836853 167.33583106 -135 163 C-135.61746094 162.53078125 -136.23492187 162.0615625 -136.87109375 161.578125 C-140.69764671 158.33366613 -143.93154351 154.83980001 -147.171875 151.015625 C-149.64624868 148.28746941 -152.40247897 145.97628226 -155.2109375 143.6015625 C-157.43314097 141.61225372 -159.18194066 139.35674359 -161 137 C-162.485 136.01 -162.485 136.01 -164 135 C-164 134.34 -164 133.68 -164 133 C-164.8353125 132.6596875 -164.8353125 132.6596875 -165.6875 132.3125 C-168.62826002 130.64341999 -170.68879371 128.42098859 -173 126 C-174.55800403 124.41224242 -176.12083806 122.82921533 -177.6875 121.25 C-178.45449219 120.47140625 -179.22148437 119.6928125 -180.01171875 118.890625 C-181.8610699 116.94769385 -181.8610699 116.94769385 -184 116 C-184 115.34 -184 114.68 -184 114 C-184.99 113.67 -185.98 113.34 -187 113 C-187 112.34 -187 111.68 -187 111 C-187.66 111 -188.32 111 -189 111 C-191.53311268 109.24630661 -191.96455882 108.1811438 -192.5625 105.125 C-191.95496844 101.74982468 -191.59785608 101.25322822 -189.125 99.125 C-186 97 -186 97 -184 97 C-183.67 96.01 -183.34 95.02 -183 94 C-182.195625 93.690625 -181.39125 93.38125 -180.5625 93.0625 C-177.49842855 91.79203135 -177.31262548 90.90652784 -176 88 C-174.515 87.505 -174.515 87.505 -173 87 C-172.57654297 86.14921875 -172.57654297 86.14921875 -172.14453125 85.28125 C-170.56458407 82.13214026 -168.18064736 79.93023926 -165.6875 77.5 C-165.21376953 77.02691406 -164.74003906 76.55382812 -164.25195312 76.06640625 C-161.99054917 73.83284448 -159.69676533 71.75910868 -157.20703125 69.78125 C-154.92138695 68.18873082 -154.92138695 68.18873082 -154 66 C-153.34 66 -152.68 66 -152 66 C-151.505 64.515 -151.505 64.515 -151 63 C-150.34 63 -149.68 63 -149 63 C-148.67 62.01 -148.34 61.02 -148 60 C-146.29296875 58.31640625 -146.29296875 58.31640625 -144.1875 56.5625 C-141.88734132 54.62032666 -139.72884408 52.7217084 -137.625 50.5625 C-136 49 -136 49 -134 49 C-133.67 48.01 -133.34 47.02 -133 46 C-132.34 46 -131.68 46 -131 46 C-131 45.34 -131 44.68 -131 44 C-130.17798096 44.01683838 -129.35596191 44.03367676 -128.5090332 44.05102539 C-124.77580303 44.10136404 -121.04598729 44.0826612 -117.3125 44.0625 C-116.01892578 44.09021484 -114.72535156 44.11792969 -113.39257812 44.14648438 C-109.7157392 44.09898 -106.54814543 43.97700902 -103 43 C-100.38011596 40.29611677 -99.09415823 37.57829094 -98 34 C-97.34 34 -96.68 34 -96 34 C-95.67 32.02 -95.34 30.04 -95 28 C-94.34 28 -93.68 28 -93 28 C-92.9071875 26.8553125 -92.9071875 26.8553125 -92.8125 25.6875 C-92 23 -92 23 -89.92407227 21.44995117 C-86.50108087 19.75260243 -83.11210854 18.89970843 -79.40234375 18.11328125 C-77.87457325 17.77152302 -76.3470765 17.42853928 -74.81982422 17.08447266 C-74.02727234 16.90789124 -73.23472046 16.73130981 -72.41815186 16.54937744 C-68.43307515 15.64401195 -64.46889699 14.65703842 -60.50390625 13.66796875 C-59.29772141 13.36783119 -59.29772141 13.36783119 -58.06716919 13.06163025 C-56.41233476 12.64928722 -54.75766303 12.23629076 -53.10314941 11.82266235 C-51.3837051 11.39280128 -49.66405365 10.96376805 -47.94421387 10.53549194 C-39.19470254 8.35577674 -30.45307487 6.16041719 -21.76171875 3.7578125 C-20.56023193 3.42628174 -19.35874512 3.09475098 -18.12084961 2.75317383 C-15.93283102 2.14258242 -13.74725693 1.52313634 -11.56469727 0.89331055 C-10.61006592 0.62558838 -9.65543457 0.35786621 -8.671875 0.08203125 C-7.8581543 -0.15281982 -7.04443359 -0.3876709 -6.20605469 -0.62963867 C-3.80478302 -1.03277381 -2.29167394 -0.76159833 0 0 Z M-49.9375 34.5625 C-56.45721962 36.51530595 -62.98736523 38.27381632 -69.6328125 39.74609375 C-70.28808426 39.89244766 -70.94335602 40.03880157 -71.6184845 40.18959045 C-74.85573475 40.90979807 -78.09472922 41.61088825 -81.34155273 42.28735352 C-89.60459128 44.10675331 -96.62218987 46.85556428 -104 51 C-104 51.66 -104 52.32 -104 53 C-104.66 53 -105.32 53 -106 53 C-108.16666667 54.83333333 -108.16666667 54.83333333 -110 57 C-110 57.66 -110 58.32 -110 59 C-110.99 59.33 -111.98 59.66 -113 60 C-113 60.66 -113 61.32 -113 62 C-113.66 62 -114.32 62 -115 62 C-116.33895632 63.66215268 -117.67130142 65.32963607 -119 67 C-119.763125 67.598125 -120.52625 68.19625 -121.3125 68.8125 C-124.35330137 71.28757088 -126.68814133 74.05503157 -129.21875 77.03515625 C-130.86226593 78.84806965 -132.52564733 80.35543785 -134.4375 81.875 C-135.283125 82.57625 -136.12875 83.2775 -137 84 C-137 84.66 -137 85.32 -137 86 C-137.763125 86.2475 -138.52625 86.495 -139.3125 86.75 C-142.27791695 88.1292637 -143.38360273 89.19257315 -145 92 C-145 92.99 -145 93.98 -145 95 C-136.82836272 95.17787148 -128.65660365 95.34375543 -120.48443031 95.49477577 C-116.68885568 95.56528474 -112.89344925 95.63976038 -109.09814453 95.72363281 C-105.4283767 95.80457951 -101.7585408 95.87467348 -98.08842087 95.93757248 C-96.69548412 95.96328947 -95.30261107 95.99277006 -93.90983963 96.02626419 C-80.59964012 96.96830051 -80.59964012 96.96830051 -68.85498047 92.07641602 C-68.44650879 91.30998779 -68.03803711 90.54355957 -67.6171875 89.75390625 C-66.92109375 88.49803711 -66.92109375 88.49803711 -66.2109375 87.21679688 C-65.54964844 85.90291992 -65.54964844 85.90291992 -64.875 84.5625 C-64.39546875 83.69044922 -63.9159375 82.81839844 -63.421875 81.91992188 C-60.7713586 77.2211909 -60.7713586 77.2211909 -60 72 C-59.34 72 -58.68 72 -58 72 C-57.34 70.906875 -56.68 69.81375 -56 68.6875 C-55.443125 67.76517578 -55.443125 67.76517578 -54.875 66.82421875 C-53.78376001 64.88638074 -53.78376001 64.88638074 -54 62 C-53.34 62 -52.68 62 -52 62 C-51.38125 60.845 -50.7625 59.69 -50.125 58.5 C-48.34411101 55.26763502 -46.46259315 52.12457764 -44.4765625 49.015625 C-43.80536377 47.9627832 -43.80536377 47.9627832 -43.12060547 46.88867188 C-42.21745986 45.47941724 -41.30776636 44.07433437 -40.39111328 42.67382812 C-38.12695138 39.13742286 -36.43107563 36.27759665 -36 32 C-40.99184592 31.58819782 -45.23091848 33.11584357 -49.9375 34.5625 Z M-16 42 C-16.42941895 42.71768555 -16.85883789 43.43537109 -17.30126953 44.17480469 C-18.91504475 46.8587091 -20.54413126 49.5324499 -22.1796875 52.203125 C-22.77910156 53.18410156 -23.37851562 54.16507812 -23.99609375 55.17578125 C-25.23962089 57.21040881 -26.48439445 59.24427516 -27.73046875 61.27734375 C-30.91983499 66.50189444 -34.02423763 71.75135218 -36.96728516 77.11865234 C-38.18424437 79.33564706 -39.45061603 81.51784961 -40.75 83.6875 C-41.24113281 84.50992188 -41.73226562 85.33234375 -42.23828125 86.1796875 C-43.59206051 88.346935 -44.97943379 90.46031213 -46.41796875 92.5703125 C-46.83401367 93.18946533 -47.25005859 93.80861816 -47.67871094 94.4465332 C-48.50395828 95.66983915 -49.34151056 96.88495309 -50.19238281 98.09057617 C-51.96415802 100.73127518 -53.0235152 102.42891665 -52.890625 105.65625 C-52.01043557 107.97253799 -51.05518675 110.0439659 -49.8125 112.1875 C-49.36519531 112.96480469 -48.91789063 113.74210937 -48.45703125 114.54296875 C-46.48464414 117.86905854 -44.49389409 121.18366728 -42.4921875 124.4921875 C-40.238961 128.27902366 -38.11118391 132.13261001 -36 136 C-35.34 136 -34.68 136 -34 136 C-33.67 137.65 -33.34 139.3 -33 141 C-32.34 141 -31.68 141 -31 141 C-30.938125 141.66 -30.87625 142.32 -30.8125 143 C-29.84813391 146.56073634 -28.19399447 149.08804315 -26.15625 152.1328125 C-25 154 -25 154 -24 157 C-23.34 157 -22.68 157 -22 157 C-21.67 158.65 -21.34 160.3 -21 162 C-20.34 162 -19.68 162 -19 162 C-18.71125 162.969375 -18.4225 163.93875 -18.125 164.9375 C-17.35785318 168.10664203 -17.35785318 168.10664203 -15 169 C-13.18695659 165.0113045 -12.60637497 161.32042168 -12 157 C-11.34614871 154.99577373 -10.67814334 152.99613778 -10 151 C-9.43166699 148.98367637 -8.88009818 146.96256642 -8.34375 144.9375 C-8.04339844 143.81085938 -7.74304688 142.68421875 -7.43359375 141.5234375 C-7.12550781 140.36070312 -6.81742188 139.19796875 -6.5 138 C-5.88714303 135.68704188 -5.27261392 133.37452605 -4.65625 131.0625 C-4.38619141 130.04285156 -4.11613281 129.02320313 -3.83789062 127.97265625 C-3.25570421 125.90718372 -2.60574568 123.86010604 -1.90429688 121.83203125 C-0.91840886 118.74447698 -0.8466303 116.22076375 -1 113 C-0.34 113 0.32 113 1 113 C2.76820914 102.85201709 0.85918472 94.66968909 -2 85 C-2.66 85 -3.32 85 -4 85 C-4.02578125 84.41734375 -4.0515625 83.8346875 -4.078125 83.234375 C-4.50722474 77.03193332 -5.94778318 71.72508372 -8.0234375 65.87890625 C-9.10480939 62.69102191 -9.82409783 59.52903528 -10.50390625 56.23828125 C-11.97838159 48.47131001 -11.97838159 48.47131001 -16 42 Z M-147 116 C-147 116.66 -147 117.32 -147 118 C-146.34 118 -145.68 118 -145 118 C-144.74401031 118.58032486 -144.48802063 119.16064972 -144.22427368 119.75856018 C-142.87906801 122.2214062 -141.38723231 123.87334625 -139.41162109 125.86303711 C-138.67680511 126.6073851 -137.94198914 127.35173309 -137.18490601 128.11863708 C-135.9912291 129.31094688 -135.9912291 129.31094688 -134.7734375 130.52734375 C-133.95179108 131.3532753 -133.13014465 132.17920685 -132.28359985 133.03016663 C-130.54269653 134.77681255 -128.79916667 136.52084391 -127.05322266 138.26245117 C-124.39728719 140.91523922 -121.75491054 143.58102204 -119.11328125 146.24804688 C-117.41747868 147.94612382 -115.72088892 149.64341505 -114.0234375 151.33984375 C-113.23979828 152.13269272 -112.45615906 152.92554169 -111.64877319 153.74241638 C-105.62995743 159.71149286 -99.73193404 164.67044087 -91.375 166.80859375 C-90.35027588 167.07784668 -89.32555176 167.34709961 -88.26977539 167.62451172 C-87.19074951 167.89279785 -86.11172363 168.16108398 -85 168.4375 C-83.30315063 168.87473389 -83.30315063 168.87473389 -81.57202148 169.32080078 C-79.21997818 169.92454256 -76.86635277 170.52215243 -74.51123047 171.11376953 C-71.11755624 171.97032894 -67.73219461 172.85420512 -64.34765625 173.74609375 C-62.25286223 174.29005725 -60.15782018 174.83306676 -58.0625 175.375 C-56.63647461 175.75096313 -56.63647461 175.75096313 -55.18164062 176.13452148 C-48.80112916 177.74932147 -42.56701481 178.58831978 -36 179 C-36.33 177.35 -36.66 175.7 -37 174 C-37.66 174 -38.32 174 -39 174 C-39.27585937 173.28457031 -39.55171875 172.56914062 -39.8359375 171.83203125 C-40.98248522 169.04261145 -42.26227115 166.37709642 -43.625 163.6875 C-44.07101563 162.80449219 -44.51703125 161.92148437 -44.9765625 161.01171875 C-45.31429687 160.34785156 -45.65203125 159.68398438 -46 159 C-46.66 159 -47.32 159 -48 159 C-48.12117188 158.2575 -48.24234375 157.515 -48.3671875 156.75 C-48.97932872 154.08983076 -49.74882738 152.33311385 -51.125 150 C-53.42418126 146.01520199 -55.64013366 141.99258383 -57.8125 137.9375 C-58.41707031 136.81214844 -59.02164063 135.68679688 -59.64453125 134.52734375 C-60.09183594 133.69332031 -60.53914063 132.85929687 -61 132 C-61.66 132 -62.32 132 -63 132 C-63.495 130.02 -63.495 130.02 -64 128 C-64.66 128 -65.32 128 -66 128 C-66.061875 127.113125 -66.12375 126.22625 -66.1875 125.3125 C-67.18602077 121.24160762 -68.89061315 119.72071349 -72 117 C-72.495 116.505 -72.495 116.505 -73 116 C-75.30053835 115.90556665 -77.60402173 115.88257872 -79.90649414 115.88647461 C-80.98935951 115.88625557 -80.98935951 115.88625557 -82.09410095 115.8860321 C-84.49114947 115.88673131 -86.88812123 115.89452405 -89.28515625 115.90234375 C-90.94282489 115.9042079 -92.60049407 115.90563182 -94.25816345 115.90663147 C-98.62954214 115.91045688 -103.00088781 115.92028735 -107.37225342 115.93133545 C-111.82954461 115.94154908 -116.28684111 115.94612899 -120.74414062 115.95117188 C-129.49610893 115.9619096 -138.24805036 115.97898629 -147 116 Z " fill="#E8E8E8" transform="translate(299,294)"/>
<path d="M0 0 C1.25541557 3.76624671 0.37061958 5.37188934 -1 9 C-1.66 9 -2.32 9 -3 9 C-3.0928125 10.85625 -3.0928125 10.85625 -3.1875 12.75 C-3.75100462 17.90204221 -5.58496148 22.10885706 -7.671875 26.81640625 C-9.46301013 31.10986252 -10.71631486 35.51019021 -12.02734375 39.96875 C-12.89469733 42.67182783 -13.90476913 45.12996813 -15.125 47.6875 C-16.5754644 50.7620365 -17.3744807 53.52319349 -17.9375 56.875 C-18.59929898 60.68180829 -19.69632029 63.77018371 -21.375 67.25 C-23.37300592 71.39790704 -24.78837171 75.43236293 -26 79.875 C-32.69484271 104.32456557 -32.69484271 104.32456557 -40.84375 110.3671875 C-42.86360383 111.46528264 -44.82260942 112.26609368 -47 113 C-47.62003906 113.22300781 -48.24007812 113.44601562 -48.87890625 113.67578125 C-56.90316442 115.98412949 -65.77262678 115.12188701 -74 115 C-74 108.73 -74 102.46 -74 96 C-70.33588565 94.77862855 -67.29750176 95.01593131 -63.47265625 95.16015625 C-60.78550217 94.98610678 -59.25457465 94.44756807 -57 93 C-56.67 92.34 -56.34 91.68 -56 91 C-55.34 91 -54.68 91 -54 91 C-54.38750698 84.69791277 -54.76612737 78.95699368 -57 73 C-57 71.68 -57 70.36 -57 69 C-57.66 69 -58.32 69 -59 69 C-59.08636719 68.27296875 -59.17273438 67.5459375 -59.26171875 66.796875 C-60.18208457 60.21077095 -61.75401936 54.59589397 -64.44140625 48.52734375 C-66.40855226 44.07538172 -68.2454252 39.57746464 -70.0625 35.0625 C-70.41103027 34.19713623 -70.75956055 33.33177246 -71.11865234 32.44018555 C-73.43296672 26.61804911 -75.38516857 20.80466232 -77.125 14.78515625 C-78.2345833 11.25331298 -79.68046379 7.95040709 -81.265625 4.609375 C-82 3 -82 3 -82 2 C-62.04504505 -0.52252252 -62.04504505 -0.52252252 -57 2 C-56.2890625 3.71484375 -56.2890625 3.71484375 -55.625 5.9375 C-54.58248836 9.26934625 -53.42022088 12.47156505 -52.0625 15.6875 C-49.9129148 20.94204159 -48.41330524 26.32610919 -46.9296875 31.80078125 C-46.08657453 34.90493516 -46.08657453 34.90493516 -45.015625 37.4296875 C-43.67780106 40.81541115 -42.78409951 44.29394818 -41.875 47.8125 C-41.69324219 48.50537109 -41.51148438 49.19824219 -41.32421875 49.91210938 C-40.87995492 51.60732661 -40.4395801 53.30356222 -40 55 C-39.80365967 54.29504395 -39.60731934 53.59008789 -39.4050293 52.86376953 C-38.50019924 49.61722972 -37.59385863 46.37111339 -36.6875 43.125 C-36.2244043 41.46210938 -36.2244043 41.46210938 -35.75195312 39.765625 C-30.3890877 20.57221191 -30.3890877 20.57221191 -27.9375 14.875 C-26.1811005 10.63148518 -25.05505501 6.46369427 -24 2 C-19.68586527 -2.31413473 -5.61843045 -0.0719287 0 0 Z " fill="#E2E2E2" transform="translate(693,357)"/>
<path d="M0 0 C0.33 20.13 0.66 40.26 1 61 C1.66 61 2.32 61 3 61 C3.33 61.99 3.66 62.98 4 64 C8.76608899 67.17739266 13.73659879 67.46737482 19.25 66.375 C23.35712428 64.86905443 24.58221581 63.53368458 27 60 C27.66 60 28.32 60 29 60 C29.33 57.03 29.66 54.06 30 51 C30.66 51 31.32 51 32 51 C31.88058377 46.34084709 31.7562764 41.68185796 31.62768555 37.02294922 C31.58471615 35.44225493 31.54301955 33.86152545 31.50268555 32.28076172 C31.22040125 20.60029973 31.22040125 20.60029973 30.21118164 8.96459961 C29.88690406 5.9478809 29.87101828 3.0310704 30 0 C30.33 -0.33 30.66 -0.66 31 -1 C38.59 -1 46.18 -1 54 -1 C54 27.05 54 55.1 54 84 C51.07330309 84.97556564 49.55938679 85.0606341 46.55078125 84.87890625 C45.70322266 84.83056641 44.85566406 84.78222656 43.98242188 84.73242188 C43.10134766 84.67634766 42.22027344 84.62027344 41.3125 84.5625 C40.41982422 84.51029297 39.52714844 84.45808594 38.60742188 84.40429688 C36.4045844 84.2747182 34.20221127 84.13975754 32 84 C32 81.36 32 78.72 32 76 C31.01 75.505 31.01 75.505 30 75 C29.731875 75.928125 29.46375 76.85625 29.1875 77.8125 C27.52060566 82.28679534 26.21839419 83.36535342 22.0078125 85.55859375 C17.40501708 87.48795542 12.99115816 87.44155352 8.0625 87.375 C7.20720703 87.38660156 6.35191406 87.39820313 5.47070312 87.41015625 C-1.13345182 87.37993128 -6.84008903 86.51201555 -12.171875 82.2734375 C-12.69265625 81.64695312 -13.2134375 81.02046875 -13.75 80.375 C-14.28109375 79.76398438 -14.8121875 79.15296875 -15.359375 78.5234375 C-20.6126069 70.44346653 -21.58982825 63.53871772 -21.57421875 53.9765625 C-21.58838333 52.75343353 -21.60254791 51.53030457 -21.61714172 50.27011108 C-21.65885762 46.38831639 -21.67425336 42.50698679 -21.6875 38.625 C-21.71656379 34.72180524 -21.75107304 30.81872742 -21.78999329 26.9156189 C-21.81247076 24.49284163 -21.82829615 22.06999172 -21.83683777 19.64712524 C-21.84387222 18.55523895 -21.85090668 17.46335266 -21.8581543 16.33837891 C-21.86163376 15.3773526 -21.86511322 14.41632629 -21.86869812 13.42617798 C-21.90042352 10.85789763 -21.90042352 10.85789763 -23 8 C-23.12781786 5.32605036 -23.04391871 2.67904143 -23 0 C-19.91722144 -0.1974877 -16.8337715 -0.38123332 -13.75 -0.5625 C-12.87730469 -0.61857422 -12.00460937 -0.67464844 -11.10546875 -0.73242188 C-10.26113281 -0.78076172 -9.41679687 -0.82910156 -8.546875 -0.87890625 C-7.77182617 -0.9260376 -6.99677734 -0.97316895 -6.19824219 -1.02172852 C-4 -1 -4 -1 0 0 Z " fill="#ECECEC" transform="translate(383,359)"/>
<path d="M0 0 C3.92900485 3.39805825 3.92900485 3.39805825 5.3125 5 C5.3125 5.66 5.3125 6.32 5.3125 7 C5.9725 7 6.6325 7 7.3125 7 C10.89098302 12.40245843 11.91149792 16.18562249 11.921875 22.609375 C11.93841125 23.41683167 11.95494751 24.22428833 11.97198486 25.05621338 C12.0201881 27.62088573 12.04171295 30.18497441 12.0625 32.75 C12.0907024 34.45575892 12.12063569 36.16149015 12.15234375 37.8671875 C12.28558165 45.60436872 12.35375765 53.3373069 12.22363281 61.07519531 C12.18606873 63.08504283 12.18606873 63.08504283 13.3125 65 C13.38444869 67.88370333 13.40541708 70.74239664 13.375 73.625 C13.37048828 74.42679687 13.36597656 75.22859375 13.36132812 76.0546875 C13.34953168 78.03649006 13.33159605 80.01825433 13.3125 82 C10.80752996 83.25248502 9.10396726 83.11374406 6.3046875 83.09765625 C5.31855469 83.09443359 4.33242188 83.09121094 3.31640625 83.08789062 C2.28386719 83.07951172 1.25132812 83.07113281 0.1875 83.0625 C-1.37291016 83.05573242 -1.37291016 83.05573242 -2.96484375 83.04882812 C-5.53911962 83.03701952 -8.11328146 83.02055075 -10.6875 83 C-10.69558685 82.28447464 -10.70367371 81.56894928 -10.71200562 80.83174133 C-10.79004595 74.07843881 -10.87736491 67.32532685 -10.97502708 60.57227802 C-11.02490742 57.10071599 -11.0712378 53.62918317 -11.109375 50.1574707 C-11.15340781 46.16338184 -11.21302492 42.16965619 -11.2734375 38.17578125 C-11.28498871 36.93290848 -11.29653992 35.69003571 -11.30844116 34.40950012 C-11.32831085 33.24867416 -11.34818054 32.08784821 -11.36865234 30.8918457 C-11.38197601 29.87258499 -11.39529968 28.85332428 -11.4090271 27.80317688 C-11.70474195 24.82643823 -12.32507171 22.65874905 -13.6875 20 C-16.08279669 18.67518454 -16.08279669 18.67518454 -18.6875 18 C-19.6775 17.67 -20.6675 17.34 -21.6875 17 C-24.08240986 16.93029948 -26.47917691 16.91551997 -28.875 16.9375 C-30.14730469 16.94652344 -31.41960937 16.95554687 -32.73046875 16.96484375 C-33.70628906 16.97644531 -34.68210937 16.98804688 -35.6875 17 C-35.98527344 17.63164062 -36.28304688 18.26328125 -36.58984375 18.9140625 C-37.6875 21 -37.6875 21 -39.25 22.375 C-43.30936023 26.96384199 -41.91621839 36.15546758 -42.00390625 41.9609375 C-42.02468735 43.10664215 -42.04546844 44.2523468 -42.06687927 45.43276978 C-42.13208218 49.08012086 -42.19112352 52.72754184 -42.25 56.375 C-42.29321305 58.85287171 -42.33682822 61.33073644 -42.38085938 63.80859375 C-42.48773352 69.8723227 -42.58955349 75.93612063 -42.6875 82 C-46.6875 83 -46.6875 83 -63.6875 82 C-63.6875 54.28 -63.6875 26.56 -63.6875 -2 C-54.57946676 -3.13850416 -54.57946676 -3.13850416 -49.8125 -3.125 C-48.42417969 -3.12886719 -48.42417969 -3.12886719 -47.0078125 -3.1328125 C-44.6875 -3 -44.6875 -3 -42.6875 -2 C-42.09394386 0.64860427 -41.94540731 3.29197322 -41.6875 6 C-41.0275 6 -40.3675 6 -39.6875 6 C-39.501875 5.443125 -39.31625 4.88625 -39.125 4.3125 C-36.28819585 -0.2510545 -32.07793162 -2.48773572 -27.125 -4.3125 C-17.21729389 -6.32894117 -8.24879904 -6.13864114 0 0 Z " fill="#EEEEEE" transform="translate(510.6875,361)"/>
<path d="M0 0 C0.93972656 -0.00128906 1.87945313 -0.00257813 2.84765625 -0.00390625 C3.83636719 -0.00003906 4.82507813 0.00382812 5.84375 0.0078125 C7.32681641 0.00201172 7.32681641 0.00201172 8.83984375 -0.00390625 C9.77957031 -0.00261719 10.71929688 -0.00132812 11.6875 0 C12.55568359 0.00112793 13.42386719 0.00225586 14.31835938 0.00341797 C16.34375 0.1328125 16.34375 0.1328125 17.34375 1.1328125 C17.50181531 3.05760063 17.594885 4.9878046 17.66015625 6.91796875 C17.70205078 8.08779297 17.74394531 9.25761719 17.78710938 10.46289062 C17.82642578 11.69458984 17.86574219 12.92628906 17.90625 14.1953125 C17.94943359 15.43087891 17.99261719 16.66644531 18.03710938 17.93945312 C18.14359198 21.00378585 18.24560424 24.06820323 18.34375 27.1328125 C19.04242187 27.12121094 19.74109375 27.10960937 20.4609375 27.09765625 C21.82605469 27.08412109 21.82605469 27.08412109 23.21875 27.0703125 C24.57613281 27.05291016 24.57613281 27.05291016 25.9609375 27.03515625 C28.34375 27.1328125 28.34375 27.1328125 30.34375 28.1328125 C30.37060412 30.44525042 30.39007841 32.7577752 30.40625 35.0703125 C30.41785156 36.35808594 30.42945313 37.64585937 30.44140625 38.97265625 C30.34375 42.1328125 30.34375 42.1328125 29.34375 43.1328125 C27.32410801 43.20525303 25.30207876 43.21658438 23.28125 43.1953125 C21.62416016 43.18177734 21.62416016 43.18177734 19.93359375 43.16796875 C19.07894531 43.15636719 18.22429688 43.14476562 17.34375 43.1328125 C17.46127733 50.05636097 17.58611017 56.97974987 17.71606445 63.90307617 C17.75942208 66.25916545 17.80109654 68.61528633 17.84106445 70.97143555 C17.89874676 74.35475188 17.96244731 77.73790907 18.02734375 81.12109375 C18.04405624 82.17742508 18.06076874 83.23375641 18.07798767 84.32209778 C18.1079055 85.79328316 18.1079055 85.79328316 18.13842773 87.29418945 C18.16174416 88.58991631 18.16174416 88.58991631 18.18553162 89.91181946 C18.26384739 92.30646675 18.26384739 92.30646675 19.34375 95.1328125 C20.12621094 95.12121094 20.90867187 95.10960937 21.71484375 95.09765625 C23.23271484 95.08412109 23.23271484 95.08412109 24.78125 95.0703125 C25.79058594 95.05871094 26.79992187 95.04710937 27.83984375 95.03515625 C30.34375 95.1328125 30.34375 95.1328125 31.34375 96.1328125 C31.41700168 98.99548817 31.43613205 101.8335315 31.40625 104.6953125 C31.40173828 105.50162109 31.39722656 106.30792969 31.39257812 107.13867188 C31.38075518 109.13675006 31.36281914 111.13479033 31.34375 113.1328125 C27.02494244 114.3404813 22.92761068 114.35399918 18.46875 114.3828125 C17.67855469 114.4034375 16.88835938 114.4240625 16.07421875 114.4453125 C9.51476188 114.48896945 5.45762211 113.0169159 0.46875 108.5703125 C-1.65625 106.1328125 -1.65625 106.1328125 -1.65625 104.1328125 C-2.31625 104.1328125 -2.97625 104.1328125 -3.65625 104.1328125 C-5.25738184 99.1965167 -5.90212312 95.12577987 -5.84375 89.8828125 C-5.83730469 89.15916504 -5.83085938 88.43551758 -5.82421875 87.68994141 C-5.64058926 73.16886574 -5.11142111 58.6474444 -4.65625 44.1328125 C-5.43871094 44.14441406 -6.22117187 44.15601563 -7.02734375 44.16796875 C-8.03925781 44.17699219 -9.05117188 44.18601562 -10.09375 44.1953125 C-11.10308594 44.20691406 -12.11242187 44.21851563 -13.15234375 44.23046875 C-15.65625 44.1328125 -15.65625 44.1328125 -16.65625 43.1328125 C-16.72938567 40.60231848 -16.74872527 38.09976413 -16.71875 35.5703125 C-16.71423828 34.85939453 -16.70972656 34.14847656 -16.70507812 33.41601562 C-16.69325864 31.65491237 -16.67532263 29.89385214 -16.65625 28.1328125 C-12.98214215 26.95709799 -9.48695817 27.05914504 -5.65625 27.1328125 C-5.66148682 26.35043213 -5.66672363 25.56805176 -5.67211914 24.76196289 C-5.69282106 21.23975417 -5.70588838 17.7175582 -5.71875 14.1953125 C-5.72712891 12.96361328 -5.73550781 11.73191406 -5.74414062 10.46289062 C-5.74736328 9.29306641 -5.75058594 8.12324219 -5.75390625 6.91796875 C-5.75914307 5.83394775 -5.76437988 4.74992676 -5.76977539 3.63305664 C-5.57455587 -0.66639082 -3.8357051 0.00498328 0 0 Z " fill="#E6E6E6" transform="translate(575.65625,330.8671875)"/>
<path d="M0 0 C0.74507812 0.00193359 1.49015625 0.00386719 2.2578125 0.00585938 C3.02609375 0.01810547 3.794375 0.03035156 4.5859375 0.04296875 C5.36195313 0.04361328 6.13796875 0.04425781 6.9375 0.04492188 C12.67956349 0.08978175 12.67956349 0.08978175 14.9609375 1.23046875 C14.9609375 28.95046875 14.9609375 56.67046875 14.9609375 85.23046875 C12.19440849 86.61373326 9.92363783 86.36263279 6.8359375 86.35546875 C5.74023438 86.35804688 4.64453125 86.360625 3.515625 86.36328125 C-0.35170485 86.21878761 -4.19891909 85.71048668 -8.0390625 85.23046875 C-8.0390625 57.84046875 -8.0390625 30.45046875 -8.0390625 2.23046875 C-3.53530839 -0.0214083 -3.53530839 -0.0214083 0 0 Z " fill="#E0E0E0" transform="translate(539.0390625,357.76953125)"/>
<path d="M0 0 C0.33 0 0.66 0 1 0 C0.64999003 7.24158565 -0.05602409 13.34405447 -3 20 C-5.31 19.67 -7.62 19.34 -10 19 C-10 18.67 -10 18.34 -10 18 C-8.02 18 -6.04 18 -4 18 C-2.68 12.06 -1.36 6.12 0 0 Z " fill="#404040" transform="translate(300,487)"/>
</svg>
