<?xml version="1.0" encoding="UTF-8"?>
<svg version="1.1" xmlns="http://www.w3.org/2000/svg" width="500" height="500">
<path d="M0 0 C0.69948761 0.00149048 1.39897522 0.00298096 2.11965942 0.0045166 C14.14227017 0.05037373 25.75691751 0.98967188 37.5625 3.3125 C38.28324707 3.44108398 39.00399414 3.56966797 39.74658203 3.70214844 C52.46864045 5.99194416 63.89419473 10.85831467 75.5625 16.3125 C76.32578613 16.66924805 77.08907227 17.02599609 77.87548828 17.39355469 C90.04503475 23.14879819 101.03863585 29.88591839 111.5625 38.3125 C113.1452404 39.52160988 114.72856976 40.72994922 116.3125 41.9375 C119.65716046 44.54410929 122.74858864 47.1355033 125.5625 50.3125 C125.5625 50.9725 125.5625 51.6325 125.5625 52.3125 C126.2225 52.3125 126.8825 52.3125 127.5625 52.3125 C127.5625 52.9725 127.5625 53.6325 127.5625 54.3125 C128.15933594 54.57289062 128.75617188 54.83328125 129.37109375 55.1015625 C131.70663169 56.39214496 132.94426132 57.63475782 134.625 59.6875 C135.13417969 60.30753906 135.64335937 60.92757812 136.16796875 61.56640625 C136.85826172 62.43072266 136.85826172 62.43072266 137.5625 63.3125 C138.18125 64.075625 138.8 64.83875 139.4375 65.625 C140.5625 67.3125 140.5625 67.3125 140.5625 69.3125 C141.2225 69.3125 141.8825 69.3125 142.5625 69.3125 C157.5625 86.82974138 157.5625 86.82974138 157.5625 95.3125 C158.2225 95.3125 158.8825 95.3125 159.5625 95.3125 C171.32128364 118.34139056 178.99963894 143.35053348 179.5625 169.3125 C179.58828125 170.09818359 179.6140625 170.88386719 179.640625 171.69335938 C180.34467925 194.31110203 176.61299042 214.85313003 169.5625 236.3125 C169.18520752 237.47700684 169.18520752 237.47700684 168.80029297 238.66503906 C165.51284593 248.63809144 160.97231918 257.57073943 155.59375 266.57470703 C154.69609741 268.08737066 153.82959565 269.61843495 152.96875 271.15234375 C149.75195912 276.80853438 145.93895505 281.71296728 141.74609375 286.68359375 C139.26348773 289.67249151 136.98843635 292.77249362 134.75390625 295.94921875 C134.36074219 296.39910156 133.96757812 296.84898437 133.5625 297.3125 C132.9025 297.3125 132.2425 297.3125 131.5625 297.3125 C131.31628906 297.89773438 131.07007813 298.48296875 130.81640625 299.0859375 C129.36876232 301.65652017 127.77007518 303.06705693 125.5 304.9375 C122.58374288 307.26735552 122.58374288 307.26735552 120.5625 310.3125 C119.9025 310.3125 119.2425 310.3125 118.5625 310.3125 C118.5625 310.9725 118.5625 311.6325 118.5625 312.3125 C115.10096154 315.3125 115.10096154 315.3125 112.5625 315.3125 C112.5625 315.9725 112.5625 316.6325 112.5625 317.3125 C103.33009398 325.12453586 91.1877823 332.81450541 79.92578125 337.33203125 C77.41612554 338.37322725 75.00076605 339.56754796 72.56616211 340.77172852 C57.20813424 348.2581434 41.68439384 352.10769177 24.75415039 354.04638672 C22.90608759 354.27078111 21.06648359 354.56329759 19.23046875 354.87109375 C-11.78889604 358.60398855 -42.04193755 352.51083038 -70.4375 340.3125 C-71.35144531 339.93738281 -72.26539063 339.56226563 -73.20703125 339.17578125 C-79.25931611 336.5897225 -84.93615758 333.41835503 -90.625 330.125 C-91.77718018 329.46419434 -91.77718018 329.46419434 -92.95263672 328.79003906 C-94.81697966 327.68978496 -96.63270979 326.50793548 -98.4375 325.3125 C-98.4375 324.6525 -98.4375 323.9925 -98.4375 323.3125 C-99.1696875 323.05082031 -99.901875 322.78914063 -100.65625 322.51953125 C-103.47961003 321.29422472 -105.53380556 319.90856724 -107.9375 318 C-108.6696875 317.42636719 -109.401875 316.85273438 -110.15625 316.26171875 C-112.72333704 314.06826595 -115.05534925 311.7053012 -117.4375 309.3125 C-118.47183681 308.36188888 -119.51250264 307.41812941 -120.55859375 306.48046875 C-135.04674679 293.48475962 -135.04674679 293.48475962 -137.4375 286.3125 C-138.0975 286.3125 -138.7575 286.3125 -139.4375 286.3125 C-143.4375 280.90073529 -143.4375 280.90073529 -143.4375 278.3125 C-144.0975 278.3125 -144.7575 278.3125 -145.4375 278.3125 C-146.953125 276.07421875 -146.953125 276.07421875 -148.6875 273 C-149.31011719 271.8965625 -149.93273437 270.793125 -150.57421875 269.65625 C-151.18910156 268.5528125 -151.80398437 267.449375 -152.4375 266.3125 C-152.95957031 265.4153125 -153.48164063 264.518125 -154.01953125 263.59375 C-168.8074584 237.68561378 -175.89276378 207.08118539 -175.8125 177.4375 C-175.81168427 176.2959697 -175.81168427 176.2959697 -175.81085205 175.13137817 C-175.74736494 155.69086201 -172.99779253 137.55604514 -166.16796875 119.30273438 C-165.46547146 117.388711 -164.82506998 115.45224382 -164.1875 113.515625 C-161.50917812 105.44541827 -157.92581 98.51542642 -153.4375 91.3125 C-152.763661 90.12905516 -152.0957461 88.94218822 -151.4375 87.75 C-143.51923155 74.14047609 -143.51923155 74.14047609 -139.4375 69.3125 C-138.7775 69.3125 -138.1175 69.3125 -137.4375 69.3125 C-137.128125 68.69375 -136.81875 68.075 -136.5 67.4375 C-135.8125 66.0625 -135.125 64.6875 -134.4375 63.3125 C-133.7775 63.3125 -133.1175 63.3125 -132.4375 63.3125 C-132.23125 62.61125 -132.025 61.91 -131.8125 61.1875 C-130.0540622 57.51076641 -127.63321859 54.83954921 -124.4375 52.3125 C-123.7775 52.3125 -123.1175 52.3125 -122.4375 52.3125 C-122.4375 51.6525 -122.4375 50.9925 -122.4375 50.3125 C-121.7775 50.3125 -121.1175 50.3125 -120.4375 50.3125 C-120.4375 49.6525 -120.4375 48.9925 -120.4375 48.3125 C-115.52356143 43.26256682 -109.65045798 39.02344757 -104.0625 34.75 C-103.3715625 34.21181641 -102.680625 33.67363281 -101.96875 33.11914062 C-93.42416762 26.56881963 -84.3903959 21.60234158 -74.5625 17.25 C-73.5943335 16.8180835 -72.62616699 16.38616699 -71.62866211 15.94116211 C-69.73315577 15.09795401 -67.83632151 14.25772287 -65.93798828 13.42089844 C-63.90726141 12.52073246 -61.88742176 11.59603448 -59.87109375 10.6640625 C-52.25491167 7.24455218 -44.61066044 5.7667335 -36.4375 4.3125 C-34.87249931 3.96955232 -33.30947271 3.61726712 -31.75 3.25 C-21.11628897 0.88636426 -10.89862011 -0.0575919 0 0 Z M-25.4375 26.3125 C-26.448125 26.46847656 -27.45875 26.62445312 -28.5 26.78515625 C-34.15395043 27.699314 -39.15617075 29.14221831 -44.4375 31.3125 C-46.54128154 32.10518953 -48.64548571 32.89675788 -50.75 33.6875 C-68.3722197 40.5214333 -84.39462225 49.81413197 -98.47265625 62.5390625 C-99.8551417 63.78687243 -101.26125536 65.00875235 -102.68359375 66.2109375 C-108.04952174 70.78962142 -112.26345483 75.64703266 -116.4375 81.3125 C-118.1414453 83.47332734 -119.85308788 85.62785234 -121.56640625 87.78125 C-126.94534605 95.05797858 -131.21687837 102.49654319 -135.0625 110.6875 C-135.75859375 112.13382813 -135.75859375 112.13382813 -136.46875 113.609375 C-140.98615834 123.12911123 -144.61953895 132.56349459 -146.5625 142.9375 C-146.72645264 143.80012451 -146.89040527 144.66274902 -147.05932617 145.55151367 C-147.53756047 148.13559438 -147.99303548 150.72241474 -148.4375 153.3125 C-148.56431152 154.03743652 -148.69112305 154.76237305 -148.82177734 155.50927734 C-154.3260648 188.3409158 -145.88819707 220.9408169 -131.4375 250.3125 C-130.7775 250.3125 -130.1175 250.3125 -129.4375 250.3125 C-129.34275391 251.32957031 -129.34275391 251.32957031 -129.24609375 252.3671875 C-128.14408032 256.38128471 -125.97592044 259.13858778 -123.5 262.4375 C-122.59484818 263.66912101 -121.68989317 264.90088668 -120.78515625 266.1328125 C-120.01042969 267.18210937 -119.23570312 268.23140625 -118.4375 269.3125 C-117.7775 270.3025 -117.1175 271.2925 -116.4375 272.3125 C-115.7775 272.3125 -115.1175 272.3125 -114.4375 272.3125 C-114.25832031 272.97894531 -114.07914063 273.64539063 -113.89453125 274.33203125 C-111.76859297 278.68080044 -108.55879829 281.6353706 -105.125 285 C-104.40586426 285.70898438 -103.68672852 286.41796875 -102.94580078 287.1484375 C-92.77873613 297.02540011 -81.86566284 304.57052331 -69.4375 311.3125 C-67.85399939 312.22887767 -66.27064247 313.14550374 -64.6875 314.0625 C-39.10466196 328.03787977 -5.40290359 333.60029082 23.1875 328.625 C24.23292969 328.44565918 25.27835938 328.26631836 26.35546875 328.08154297 C34.63660737 326.59932077 42.64143151 324.6608511 50.61083984 321.97021484 C51.90650274 321.53357288 53.20639474 321.10927526 54.51025391 320.69775391 C66.18665267 317.00476699 76.21824628 311.116094 86.53271484 304.58056641 C88.20922149 303.53320346 89.92273001 302.54532338 91.64453125 301.57421875 C92.59392578 300.94966797 92.59392578 300.94966797 93.5625 300.3125 C93.5625 299.6525 93.5625 298.9925 93.5625 298.3125 C94.14128906 298.05210937 94.72007812 297.79171875 95.31640625 297.5234375 C97.71445442 296.23057675 99.48468697 294.76524925 101.5 292.9375 C103.81160517 290.85921573 106.09683156 288.90061942 108.5625 287 C109.2225 286.443125 109.8825 285.88625 110.5625 285.3125 C110.5625 284.6525 110.5625 283.9925 110.5625 283.3125 C111.2225 283.3125 111.8825 283.3125 112.5625 283.3125 C112.5625 282.6525 112.5625 281.9925 112.5625 281.3125 C113.2225 281.3125 113.8825 281.3125 114.5625 281.3125 C115.94759525 279.68859523 117.27008949 278.01109667 118.5625 276.3125 C119.47638312 275.24760485 120.39305499 274.18509665 121.3125 273.125 C123.77073168 270.65250329 123.77073168 270.65250329 123.5625 268.3125 C124.2225 268.3125 124.8825 268.3125 125.5625 268.3125 C145.78095552 242.75223663 155.02144674 208.05245444 154.875 176 C154.87081055 174.73325439 154.86662109 173.46650879 154.86230469 172.16137695 C154.74666258 162.5427833 153.81057735 153.64395901 151.5625 144.3125 C151.27905424 142.98614442 150.99783725 141.65931077 150.71875 140.33203125 C146.63003031 121.69860198 138.00275758 100.99608272 125.5625 86.3125 C124.9025 86.3125 124.2425 86.3125 123.5625 86.3125 C123.29953125 85.74273437 123.0365625 85.17296875 122.765625 84.5859375 C119.3027746 78.04249941 114.01911209 72.26152027 108.5625 67.3125 C107.9025 67.3125 107.2425 67.3125 106.5625 67.3125 C106.5625 66.6525 106.5625 65.9925 106.5625 65.3125 C104.22916667 62.64583333 104.22916667 62.64583333 101.5625 60.3125 C100.9025 60.3125 100.2425 60.3125 99.5625 60.3125 C99.5625 59.6525 99.5625 58.9925 99.5625 58.3125 C97.35439451 56.69663685 97.35439451 56.69663685 94.5625 55.0625 C91.13472152 52.95443801 87.87528583 50.84541139 84.75 48.3125 C62.11038463 30.9754422 30.89357824 24.10462533 2.9375 24.125 C1.78757568 24.12580566 0.63765137 24.12661133 -0.54711914 24.12744141 C-9.02011288 24.18834235 -17.08944264 24.7994146 -25.4375 26.3125 Z " fill="#F5F5F5" transform="translate(247.4375,-0.3125)"/>
<path d="M0 0 C0 0.66 0 1.32 0 2 C-1.8984375 3.7265625 -1.8984375 3.7265625 -4.375 5.625 C-5.18710938 6.25664063 -5.99921875 6.88828125 -6.8359375 7.5390625 C-9 9 -9 9 -11 9 C-11.28875 9.598125 -11.5775 10.19625 -11.875 10.8125 C-13 13 -13 13 -15 16 C-15.66 16 -16.32 16 -17 16 C-17.268125 16.804375 -17.53625 17.60875 -17.8125 18.4375 C-18.44720466 20.34161397 -19.09187011 22.24334376 -19.80078125 24.12109375 C-22.99669272 32.86062416 -22.63197485 39.3999352 -19 48 C-17.99163938 49.23267348 -17.99163938 49.23267348 -15.93359375 49.09765625 C-14.69802734 49.08025391 -14.69802734 49.08025391 -13.4375 49.0625 C-12.61121094 49.05347656 -11.78492188 49.04445312 -10.93359375 49.03515625 C-10.29550781 49.02355469 -9.65742188 49.01195312 -9 49 C-8.99503478 49.84483507 -8.99503478 49.84483507 -8.98996925 50.70673752 C-8.90874978 64.41104973 -8.8165355 78.11524997 -8.71247292 91.81940842 C-8.66248199 98.44664152 -8.61615207 105.07385847 -8.578125 111.70117188 C-8.54130772 118.09435429 -8.49495725 124.48740242 -8.44193649 130.88047028 C-8.42337366 133.32213236 -8.40827273 135.76382325 -8.39665604 138.20552826 C-8.37982614 141.61990676 -8.35079844 145.03397644 -8.31884766 148.44824219 C-8.31668747 149.46244232 -8.31452728 150.47664246 -8.31230164 151.52157593 C-8.30113815 152.45263153 -8.28997467 153.38368713 -8.2784729 154.34295654 C-8.27294214 155.1504472 -8.26741138 155.95793785 -8.26171303 156.78989792 C-7.97223576 159.23446216 -7.21976245 160.8785832 -6 163 C-5.34 163 -4.68 163 -4 163 C-4 163.66 -4 164.32 -4 165 C2.50623586 167.40447847 8.52205356 167.57997013 15.13671875 165.24609375 C19.63511842 163.13387858 23.47480274 160.27924242 27.3359375 157.171875 C29 156 29 156 31 156 C30.98509708 143.91641876 30.94337729 131.83325104 30.86790943 119.74988747 C30.83369438 114.13838027 30.80853794 108.52714376 30.80444336 102.91552734 C30.80014873 97.49471168 30.7715889 92.07450607 30.72656822 86.65388107 C30.71363051 84.59119604 30.70927225 82.52843786 30.71384621 80.46571732 C30.96157312 65.46217877 30.96157312 65.46217877 25 52 C24.31484549 50.67607194 23.64246978 49.34515977 23 48 C22.01 48 21.02 48 20 48 C20 47.34 20 46.68 20 46 C19.34 46 18.68 46 18 46 C18 45.01 18 44.02 18 43 C31.49138941 43.72926429 31.49138941 43.72926429 37.1875 45.125 C40.89520918 46.3240568 40.89520918 46.3240568 44 45 C44 44.34 44 43.68 44 43 C50.18066844 35.75369907 58.74312516 30.56080756 67 26 C67.65613281 25.63366455 68.31226563 25.2673291 68.98828125 24.88989258 C77.10617398 20.38795988 84.88645644 16.07930363 94 14 C95.04414063 13.72542969 96.08828125 13.45085937 97.1640625 13.16796875 C105.45976027 11 105.45976027 11 109 11 C108.34 12.65 107.68 14.3 107 16 C106.34 16 105.68 16 105 16 C104.773125 16.53625 104.54625 17.0725 104.3125 17.625 C103 20 103 20 100.4375 23.0625 C97.86462201 25.80205688 97.86462201 25.80205688 97 29 C96.34 29 95.68 29 95 29 C94.72148193 29.58861816 94.44296387 30.17723633 94.15600586 30.78369141 C93.07586785 32.85454523 91.91143193 34.60299309 90.50390625 36.4609375 C90.02759766 37.09773438 89.55128906 37.73453125 89.06054688 38.390625 C88.06702334 39.70668747 87.07224401 41.02180291 86.07617188 42.3359375 C77.59094343 53.69537963 77.84597438 64.05169746 77.8671875 77.7578125 C77.86651182 79.30793269 77.86553961 80.85805278 77.86428833 82.40817261 C77.86281763 85.65770476 77.8649416 88.90720935 77.86962891 92.15673828 C77.87525988 96.25347245 77.87196826 100.3501409 77.86622238 104.44687271 C77.83759279 125.78553093 77.83759279 125.78553093 78.3203125 147.1171875 C78.34229706 147.99980255 78.36428162 148.8824176 78.38693237 149.79177856 C78.47366673 154.01823688 78.47366673 154.01823688 80.28952026 157.70291138 C82.78329688 159.5939886 85.20446325 159.58011673 88.25390625 159.5 C92.89449689 158.65505604 96.89752133 156.52490857 101.08203125 154.41015625 C103.45174431 153.26495355 105.435884 152.49047255 108 152 C108 151.34 108 150.68 108 150 C109.64453125 148.30859375 109.64453125 148.30859375 111.8125 146.4375 C112.52019531 145.81746094 113.22789062 145.19742188 113.95703125 144.55859375 C116 143 116 143 119 142 C119 141.34 119 140.68 119 140 C123.47058824 136 123.47058824 136 126 136 C120.26250927 150.54682384 111.68558554 164.61856404 100.87109375 175.97265625 C97.98625368 179.09840154 95.49292096 182.52215475 92.95703125 185.93359375 C90.77718989 188.23526257 88.99533834 189.05328685 86 190 C86 190.66 86 191.32 86 192 C79.08414439 199.33199592 70.06229484 205.69474556 61 210 C58.99406276 208.54927753 56.99539826 207.09008971 55 205.625 C54.42765625 205.2125 53.8553125 204.8 53.265625 204.375 C51.80684688 203.29828281 50.39899024 202.15333422 49 201 C49 200.34 49 199.68 49 199 C48.401875 198.71125 47.80375 198.4225 47.1875 198.125 C45 197 45 197 42 195 C42 194.34 42 193.68 42 193 C41.38125 192.690625 40.7625 192.38125 40.125 192.0625 C38.75 191.375 37.375 190.6875 36 190 C35.73832031 190.58910156 35.47664062 191.17820312 35.20703125 191.78515625 C33.9357725 194.11785434 32.59769469 195.60354368 30.6875 197.4375 C30.11386719 197.99308594 29.54023438 198.54867187 28.94921875 199.12109375 C28.30597656 199.74113281 27.66273438 200.36117187 27 201 C24.36426283 203.54295922 21.96805314 206.04088762 19.7109375 208.9296875 C18.94007813 209.90164063 18.16921875 210.87359375 17.375 211.875 C16.61960938 212.86242187 15.86421875 213.84984375 15.0859375 214.8671875 C11.02215691 217.67582573 8.70462073 217.24922351 3.93945312 216.55957031 C-0.73542716 215.66963463 -5.33832445 214.66269349 -9.9375 213.4375 C-11.41597412 213.04703491 -11.41597412 213.04703491 -12.92431641 212.64868164 C-26.30145543 208.97923577 -38.99684655 203.95827251 -51 197 C-51 196.34 -51 195.68 -51 195 C-51.556875 194.9175 -52.11375 194.835 -52.6875 194.75 C-55.73677919 193.76104459 -57.65189963 192.15242534 -60 190 C-60 189.34 -60 188.68 -60 188 C-60.57234375 187.76539063 -61.1446875 187.53078125 -61.734375 187.2890625 C-64.51684301 185.70593415 -66.17070214 183.8008475 -68.25 181.375 C-69.30960938 180.14910156 -69.30960938 180.14910156 -70.390625 178.8984375 C-70.92171875 178.27195313 -71.4528125 177.64546875 -72 177 C-71.67 176.01 -71.34 175.02 -71 174 C-70.01 174.33 -69.02 174.66 -68 175 C-61.91431338 175.23294845 -61.91431338 175.23294845 -56 174 C-54.85009873 169.87140554 -54.85230229 165.88139376 -54.85473633 161.62304688 C-54.85137772 160.7803273 -54.8480191 159.93760773 -54.84455872 159.0693512 C-54.83506552 156.28580245 -54.83310659 153.50231393 -54.83203125 150.71875 C-54.82881814 148.7834877 -54.82545403 146.84822565 -54.82194519 144.91296387 C-54.81595844 140.85782304 -54.81410489 136.80270352 -54.81469727 132.74755859 C-54.814799 127.54879992 -54.80113304 122.35017747 -54.78392506 117.15145111 C-54.77281441 113.15549083 -54.77077775 109.15956362 -54.77130699 105.16358948 C-54.77012599 103.24662302 -54.76569752 101.32965573 -54.75797462 99.41270447 C-54.74819126 96.73402304 -54.75104596 94.05563922 -54.75708008 91.37695312 C-54.75146057 90.58410416 -54.74584106 89.79125519 -54.74005127 88.97438049 C-54.74911087 83.66692666 -54.74911087 83.66692666 -57 79 C-61.90725209 77.13687317 -67.18180092 77.72914782 -71.90625 79.80078125 C-83.55310407 86.47164729 -92.5019809 96.8837508 -100.15234375 107.69140625 C-100.76207031 108.45324219 -101.37179688 109.21507812 -102 110 C-102.66 110 -103.32 110 -104 110 C-104.24105469 110.68578125 -104.48210937 111.3715625 -104.73046875 112.078125 C-106.24100782 115.55468877 -108.22117127 118.60635209 -110.3125 121.75 C-113.78281053 127.04719361 -117.04768035 132.39207624 -120 138 C-120.99 138 -121.98 138 -123 138 C-123.62667924 118.61936412 -119.83285258 101.61910419 -109.32421875 85.09765625 C-107.67144707 82.4795489 -106.32421454 79.79556403 -105 77 C-104.34 77 -103.68 77 -103 77 C-102.731875 76.2575 -102.46375 75.515 -102.1875 74.75 C-101.04723249 72.10938051 -99.90619694 70.14447156 -98 68 C-97.34 68 -96.68 68 -96 68 C-95.73445313 67.41605469 -95.46890625 66.83210938 -95.1953125 66.23046875 C-93.96345428 63.93180521 -92.61820023 62.24623607 -90.875 60.3125 C-90.25238281 59.61898437 -89.62976563 58.92546875 -88.98828125 58.2109375 C-88.33214844 57.48132813 -87.67601562 56.75171875 -87 56 C-86.35417969 55.24976563 -85.70835937 54.49953125 -85.04296875 53.7265625 C-81.22334824 49.31177429 -77.28811038 45.33651641 -72.82421875 41.57421875 C-71.16133172 40.13922202 -69.64092162 38.6495499 -68.125 37.0625 C-66 35 -66 35 -64 35 C-64 34.34 -64 33.68 -64 33 C-62.07644034 31.35080386 -60.15362187 29.82293058 -58.125 28.3125 C-57.53146729 27.86551758 -56.93793457 27.41853516 -56.32641602 26.95800781 C-54.55640519 25.63115455 -52.7788011 24.3150331 -51 23 C-50.11957031 22.33871094 -49.23914063 21.67742187 -48.33203125 20.99609375 C-42.22943801 16.54607878 -35.79902587 13.25446705 -29 10 C-27.37462351 9.14654996 -25.74960608 8.29241566 -24.125 7.4375 C-8.15332131 -0.53539633 -8.15332131 -0.53539633 0 0 Z " fill="#F8F8F8" transform="translate(239,70)"/>
<path d="M0 0 C28 0 28 0 33.8125 4.9375 C34.94008334 6.92275299 36.00808884 8.94359881 37 11 C38.08746057 12.44568287 39.21194693 13.86440374 40.375 15.25 C43.60748882 19.44535784 46.78016647 23.68542275 49.9375 27.9375 C50.43491699 28.60104492 50.93233398 29.26458984 51.44482422 29.94824219 C55 34.76894606 55 34.76894606 55 37 C56.32 37.66 57.64 38.32 59 39 C59.33 26.13 59.66 13.26 60 0 C65.94 0 71.88 0 78 0 C78 19.14 78 38.28 78 58 C69.09 58 60.18 58 51 58 C41.82089552 47.67350746 41.82089552 47.67350746 39 44.0625 C38.4225 43.33160156 37.845 42.60070312 37.25 41.84765625 C36 40 36 40 36 38 C35.34 38 34.68 38 34 38 C30 33.64705882 30 33.64705882 30 30 C29.34 30 28.68 30 28 30 C26.59765625 28.3203125 26.59765625 28.3203125 25.0625 26.125 C23.10052062 23.32503965 21.90905857 21.93937238 19 20 C19.01160156 21.23492187 19.02320312 22.46984375 19.03515625 23.7421875 C19.10806695 35.21195201 18.73852812 46.55281409 18 58 C12.06 58 6.12 58 0 58 C0 38.86 0 19.72 0 0 Z " fill="#F3F3F3" transform="translate(102,392)"/>
<path d="M0 0 C13.1484375 -0.061875 13.1484375 -0.061875 26.5625 -0.125 C29.31795166 -0.14320801 32.07340332 -0.16141602 34.91235352 -0.18017578 C37.10953578 -0.18601998 39.30672022 -0.19111571 41.50390625 -0.1953125 C42.63405151 -0.20554443 43.76419678 -0.21577637 44.92858887 -0.22631836 C52.96181163 -0.22809072 59.20175213 0.33834432 66 5 C68 7 68 7 68.22705078 9.33837891 C68.21657715 10.29147949 68.20610352 11.24458008 68.1953125 12.2265625 C68.18886719 13.2578125 68.18242187 14.2890625 68.17578125 15.3515625 C68.15064453 16.97191406 68.15064453 16.97191406 68.125 18.625 C68.11597656 19.71296875 68.10695313 20.8009375 68.09765625 21.921875 C68.07403409 24.61480152 68.04109556 27.30729255 68 30 C67.34 30 66.68 30 66 30 C64.42726432 32.8424854 64.42726432 32.8424854 64 36 C65.485 36.495 65.485 36.495 67 37 C68.17426264 39.34852528 68.11508173 40.73774065 68.09765625 43.3515625 C68.09282227 44.62773437 68.09282227 44.62773437 68.08789062 45.9296875 C68.07532227 47.26386719 68.07532227 47.26386719 68.0625 48.625 C68.05798828 49.5221875 68.05347656 50.419375 68.04882812 51.34375 C68.03702611 53.56252831 68.01909039 55.78127243 68 58 C62.06 58 56.12 58 50 58 C49.8046875 54.94010417 49.609375 51.88020833 49.4140625 48.8203125 C49.26746509 45.86953526 49.26746509 45.86953526 47 44 C44.34666536 43.6853988 41.78783859 43.48510117 39.125 43.375 C38.36646729 43.33705322 37.60793457 43.29910645 36.82641602 43.26000977 C30.54761993 42.96795734 24.28533792 42.92043876 18 43 C18 47.95 18 52.9 18 58 C12.06 58 6.12 58 0 58 C0 38.86 0 19.72 0 0 Z M18 14 C18 18.62 18 23.24 18 28 C22.07529423 28.04593318 26.14992818 28.08575126 30.2253418 28.10986328 C31.61144048 28.1199157 32.99751799 28.1335597 34.38354492 28.15087891 C36.3766975 28.17515952 38.37000533 28.18542031 40.36328125 28.1953125 C41.56251221 28.20578613 42.76174316 28.21625977 43.99731445 28.22705078 C47.18162827 28.23308072 47.18162827 28.23308072 50 26 C50.36416047 23.56306689 50.36416047 23.56306689 50.1875 20.875 C50.16042969 19.96492188 50.13335937 19.05484375 50.10546875 18.1171875 C50.07066406 17.41851562 50.03585938 16.71984375 50 16 C46.05091786 14.14274249 42.95232103 13.76348511 38.60546875 13.8046875 C37.40341797 13.81113281 36.20136719 13.81757813 34.96289062 13.82421875 C33.09407227 13.84935547 33.09407227 13.84935547 31.1875 13.875 C29.92228516 13.88402344 28.65707031 13.89304687 27.35351562 13.90234375 C24.23559595 13.92587522 21.11777378 13.96174511 18 14 Z " fill="#F2F2F2" transform="translate(190,392)"/>
<path d="M0 0 C20.79 0 41.58 0 63 0 C63 4.62 63 9.24 63 14 C48.48 14 33.96 14 19 14 C18.67 16.64 18.34 19.28 18 22 C32.19 22 46.38 22 61 22 C61 26.29 61 30.58 61 35 C58.84543031 37.15456969 53.9288373 36.26026626 50.93359375 36.31640625 C50.02497086 36.33718735 49.11634796 36.35796844 48.18019104 36.37937927 C45.26604054 36.44497672 42.35179696 36.5038068 39.4375 36.5625 C37.46678709 36.60567554 35.49608374 36.64928951 33.52539062 36.69335938 C28.68369012 36.80066843 23.84189563 36.90190675 19 37 C19 38.98 19 40.96 19 43 C20.07894531 42.99476318 21.15789062 42.98952637 22.26953125 42.98413086 C26.30256306 42.96592336 30.33559128 42.95451081 34.36865234 42.94506836 C36.10856743 42.94006396 37.84847836 42.93325841 39.58837891 42.92456055 C42.10059642 42.91232338 44.61275794 42.90673261 47.125 42.90234375 C48.27705933 42.89460182 48.27705933 42.89460182 49.45239258 42.88670349 C54.38758692 42.88619987 59.11353214 43.29950932 64 44 C64 48.62 64 53.24 64 58 C42.88 58 21.76 58 0 58 C0 38.86 0 19.72 0 0 Z " fill="#F4F4F4" transform="translate(268,392)"/>
<path d="M0 0 C6.27 0 12.54 0 19 0 C19.33 13.86 19.66 27.72 20 42 C23.69625363 42.73925073 26.48615085 43.12804946 30.16015625 43.1328125 C31.11857422 43.13410156 32.07699219 43.13539063 33.06445312 43.13671875 C34.05380859 43.13285156 35.04316406 43.12898438 36.0625 43.125 C37.55233398 43.13080078 37.55233398 43.13080078 39.07226562 43.13671875 C40.02939453 43.13542969 40.98652344 43.13414062 41.97265625 43.1328125 C43.27601929 43.13112061 43.27601929 43.13112061 44.60571289 43.12939453 C46.92639706 43.00397773 48.8309987 42.84264232 51 42 C52.30920503 38.0723849 52.23462868 34.27429369 52.31640625 30.17578125 C52.33718735 29.31438034 52.35796844 28.45297943 52.37937927 27.56547546 C52.44474909 24.81456456 52.50370132 22.06355844 52.5625 19.3125 C52.60569717 17.44725579 52.64931185 15.5820212 52.69335938 13.71679688 C52.80120316 9.14462742 52.90036991 4.57238538 53 0 C59.27 0 65.54 0 72 0 C72.04606706 5.8351613 72.08584616 11.66968416 72.10986328 17.50488281 C72.11988215 19.48732651 72.133501 21.46975559 72.15087891 23.45214844 C72.17530882 26.31188584 72.1865245 29.17142679 72.1953125 32.03125 C72.20563507 32.90865845 72.21595764 33.78606689 72.22659302 34.69006348 C72.22768168 40.74561195 71.7571498 46.48570041 69 52 C68.34 52 67.68 52 67 52 C67 52.66 67 53.32 67 54 C59.60516422 57.51745507 53.15212162 58.80032077 45 59 C44.21061035 59.02046387 43.4212207 59.04092773 42.60791016 59.06201172 C12.00907841 59.75212517 12.00907841 59.75212517 2.44126892 51.68589783 C0.70850365 49.6590275 0.52995176 48.56082438 0.31860352 45.92797852 C0.22218063 44.73037399 0.22218063 44.73037399 0.12380981 43.50857544 C-0.07962749 39.38662578 -0.12270116 35.27874365 -0.09765625 31.15234375 C-0.0962413 30.25504044 -0.09482635 29.35773712 -0.09336853 28.4332428 C-0.0878251 25.60129286 -0.07528358 22.76942555 -0.0625 19.9375 C-0.05747767 18.00325636 -0.05291606 16.06901147 -0.04882812 14.13476562 C-0.0387303 9.42312058 -0.01914441 4.71165146 0 0 Z " fill="#F0F0F0" transform="translate(21,392)"/>
<path d="M0 0 C2.0164583 0.03979852 4.0324896 0.11124076 6.046875 0.2109375 C7.59375 0.25154297 7.59375 0.25154297 9.171875 0.29296875 C11.7156625 0.36362951 14.25520599 0.46221672 16.796875 0.5859375 C22.45887568 10.5659286 27.99944572 20.60608321 33.47119141 30.69165039 C36.69574119 36.61789218 40.00153639 42.47175796 43.4921875 48.24609375 C45.44852754 51.75461975 46.796875 54.53617483 46.796875 58.5859375 C40.526875 58.5859375 34.256875 58.5859375 27.796875 58.5859375 C27.11044922 56.39130859 27.11044922 56.39130859 26.41015625 54.15234375 C25.12714707 51.54066111 25.12714707 51.54066111 22.796875 49.5859375 C16.87466219 48.24492619 11.0292243 48.41699106 4.984375 48.5234375 C3.32095097 48.52036158 1.65752918 48.5132442 -0.00585938 48.50195312 C-4.07307707 48.48314294 -8.13643885 48.51971721 -12.203125 48.5859375 C-13.24487508 51.17333503 -14.2661241 53.75852124 -15.22265625 56.37890625 C-17.203125 58.5859375 -17.203125 58.5859375 -19.22412109 58.97900391 C-21.79745005 59.07990862 -24.31834213 59.02074795 -26.890625 58.8984375 C-27.78330078 58.87587891 -28.67597656 58.85332031 -29.59570312 58.83007812 C-31.79986772 58.77114324 -34.00065172 58.68894568 -36.203125 58.5859375 C-34.72582797 53.61262864 -32.6042193 49.30474764 -30.140625 44.7734375 C-29.32920562 43.2631398 -28.51801428 41.75271956 -27.70703125 40.2421875 C-27.29211426 39.47261719 -26.87719727 38.70304687 -26.44970703 37.91015625 C-25.23875012 35.65235958 -24.04387696 33.38692208 -22.85546875 31.1171875 C-18.50864307 22.81819678 -14.10954375 14.57229794 -9.203125 6.5859375 C-8.70941406 5.49410156 -8.21570313 4.40226562 -7.70703125 3.27734375 C-4.77749319 0.12843311 -4.12644676 0.16308797 0 0 Z M4.796875 14.5859375 C4.54292969 15.10542969 4.28898437 15.62492187 4.02734375 16.16015625 C2.49493993 19.26513927 0.96457699 22.30858421 -0.828125 25.2734375 C-2.89190579 28.74434155 -4.203125 31.5205804 -4.203125 35.5859375 C2.396875 35.5859375 8.996875 35.5859375 15.796875 35.5859375 C11.3480096 24.81090581 11.3480096 24.81090581 5.796875 14.5859375 C5.466875 14.5859375 5.136875 14.5859375 4.796875 14.5859375 Z " fill="#F2F2F2" transform="translate(370.203125,391.4140625)"/>
<path d="M0 0 C5.94 0 11.88 0 18 0 C18 14.19 18 28.38 18 43 C30.54 43 43.08 43 56 43 C56 47.95 56 52.9 56 58 C37.19 58 18.38 58 -1 58 C-1.020625 48.615625 -1.04125 39.23125 -1.0625 29.5625 C-1.071604 26.59580322 -1.08070801 23.62910645 -1.09008789 20.57250977 C-1.0930068 18.23714239 -1.09555542 15.90177451 -1.09765625 13.56640625 C-1.10277222 12.34078979 -1.10788818 11.11517334 -1.11315918 9.85241699 C-1.11328003 8.69528198 -1.11340088 7.53814697 -1.11352539 6.34594727 C-1.115746 5.335569 -1.11796661 4.32519073 -1.12025452 3.28419495 C-1 1 -1 1 0 0 Z " fill="#EFEFEF" transform="translate(423,392)"/>
<path d="M0 0 C16 0 16 0 19.6796875 2.44921875 C20.40414062 3.51785156 21.12859375 4.58648437 21.875 5.6875 C23.01582031 7.27111328 23.01582031 7.27111328 24.1796875 8.88671875 C25.74361569 11.5615058 26.97235104 14.08472217 28 17 C28.66 17 29.32 17 30 17 C30.99 18.65 31.98 20.3 33 22 C33.33 14.74 33.66 7.48 34 0 C37.63 0 41.26 0 45 0 C45 11.22 45 22.44 45 34 C28 34 28 34 24.15234375 31.2265625 C22.95117188 29.4765625 22.95117188 29.4765625 21.9375 27.625 C21.53724609 27.02171875 21.13699219 26.4184375 20.72460938 25.796875 C18 21.5763097 18 21.5763097 18 19 C17.34 19 16.68 19 16 19 C15.34 17.35 14.68 15.7 14 14 C13.34 14 12.68 14 12 14 C11.67 20.6 11.34 27.2 11 34 C7.37 34 3.74 34 0 34 C0 22.78 0 11.56 0 0 Z " fill="#E6E6E6" transform="translate(170,466)"/>
<path d="M0 0 C1.08087891 -0.020625 2.16175781 -0.04125 3.27539062 -0.0625 C8.97945826 -0.09051261 13.30785219 -0.07299983 18.1875 3.25 C20.96617692 6.02867692 20.83943902 8.4213292 21.1875 12.25 C20.1875 13.25 20.1875 13.25 17.90234375 13.34765625 C16.98582031 13.33605469 16.06929688 13.32445312 15.125 13.3125 C14.20589844 13.30347656 13.28679687 13.29445313 12.33984375 13.28515625 C11.62957031 13.27355469 10.91929687 13.26195312 10.1875 13.25 C9.8575 12.59 9.5275 11.93 9.1875 11.25 C3.40312201 9.44238188 -3.01780146 9.80132537 -8.8125 11.25 C-8.8125 15.54 -8.8125 19.83 -8.8125 24.25 C-4.77673344 25.25894164 -1.17543071 25.36303696 2.9375 25.3125 C3.63488281 25.30798828 4.33226562 25.30347656 5.05078125 25.29882812 C6.76305803 25.2871002 8.47529033 25.26916653 10.1875 25.25 C10.1875 24.26 10.1875 23.27 10.1875 22.25 C6.2275 22.25 2.2675 22.25 -1.8125 22.25 C-1.85491723 19.91705225 -1.85342937 17.58297433 -1.8125 15.25 C-0.19049485 13.62799485 1.60773031 14.1200925 3.84375 14.1171875 C4.78347656 14.11589844 5.72320312 14.11460937 6.69140625 14.11328125 C7.68011719 14.11714844 8.66882813 14.12101562 9.6875 14.125 C11.17056641 14.11919922 11.17056641 14.11919922 12.68359375 14.11328125 C14.09318359 14.11521484 14.09318359 14.11521484 15.53125 14.1171875 C16.39943359 14.11831543 17.26761719 14.11944336 18.16210938 14.12060547 C20.1875 14.25 20.1875 14.25 21.1875 15.25 C21.31351135 16.9965759 21.36329494 18.7489234 21.375 20.5 C21.38917969 21.45390625 21.40335937 22.4078125 21.41796875 23.390625 C21.10216341 27.30875221 20.38726325 30.07591813 17.53369141 32.8684082 C12.98362896 35.5477842 7.49312643 34.7281914 2.34301758 34.69604492 C0.25957283 34.68753908 -1.82112311 34.71630093 -3.90429688 34.74804688 C-5.88333008 34.74708008 -5.88333008 34.74708008 -7.90234375 34.74609375 C-9.71013306 34.74887329 -9.71013306 34.74887329 -11.55444336 34.75170898 C-15.43523393 34.15410504 -17.06615604 33.00944109 -19.8125 30.25 C-22.78816553 23.30678043 -22.97691318 14.91407845 -20.5625 7.75 C-16.18189611 -1.01120778 -8.69587195 0.04104246 0 0 Z " fill="#E8E8E8" transform="translate(241.8125,465.75)"/>
<path d="M0 0 C1.35837535 0.06277644 2.71645997 0.13209414 4.07421875 0.20703125 C4.75162109 0.22572266 5.42902344 0.24441406 6.12695312 0.26367188 C9.39613614 0.44582577 11.42058468 0.76092024 14.0546875 2.7578125 C15.81890217 5.09529601 17.27326007 7.49857212 18.76171875 10.01953125 C20.29423454 11.98083384 21.85804452 13.91801007 23.44921875 15.83203125 C25.58390625 18.39984375 25.58390625 18.39984375 27.76171875 21.01953125 C28.09171875 14.41953125 28.42171875 7.81953125 28.76171875 1.01953125 C32.39171875 1.01953125 36.02171875 1.01953125 39.76171875 1.01953125 C39.76171875 11.90953125 39.76171875 22.79953125 39.76171875 34.01953125 C23.76171875 34.01953125 23.76171875 34.01953125 18.44921875 29.33203125 C15.32858276 25.19366329 12.40653104 20.95396811 10.76171875 16.01953125 C10.10171875 16.01953125 9.44171875 16.01953125 8.76171875 16.01953125 C7.77171875 15.02953125 6.78171875 14.03953125 5.76171875 13.01953125 C5.76171875 19.94953125 5.76171875 26.87953125 5.76171875 34.01953125 C2.46171875 34.01953125 -0.83828125 34.01953125 -4.23828125 34.01953125 C-4.26293413 29.33813871 -4.28111864 24.65678366 -4.29321289 19.9753418 C-4.29825282 18.38158511 -4.30508475 16.78783306 -4.3137207 15.1940918 C-4.32580124 12.90802872 -4.3315128 10.62202658 -4.3359375 8.3359375 C-4.34109879 7.61926407 -4.34626007 6.90259064 -4.35157776 6.16419983 C-4.35177388 4.44889453 -4.30020132 2.73371859 -4.23828125 1.01953125 C-3.23828125 0.01953125 -3.23828125 0.01953125 0 0 Z " fill="#EFEFEF" transform="translate(289.23828125,465.98046875)"/>
<path d="M0 0 C1.3312793 -0.00193359 1.3312793 -0.00193359 2.68945312 -0.00390625 C3.60017578 -0.00003906 4.51089844 0.00382812 5.44921875 0.0078125 C6.34833984 0.00394531 7.24746094 0.00007813 8.17382812 -0.00390625 C13.90542551 0.00438239 19.45156153 0.40260882 25.13671875 1.1328125 C25.13671875 4.1028125 25.13671875 7.0728125 25.13671875 10.1328125 C16.88671875 10.1328125 8.63671875 10.1328125 0.13671875 10.1328125 C0.13671875 10.7928125 0.13671875 11.4528125 0.13671875 12.1328125 C1.45027344 12.12121094 2.76382812 12.10960937 4.1171875 12.09765625 C5.85286316 12.08827422 7.58854036 12.07917446 9.32421875 12.0703125 C10.18853516 12.06193359 11.05285156 12.05355469 11.94335938 12.04492188 C16.13958644 12.02884438 20.04608761 12.05722212 24.13671875 13.1328125 C24.13671875 15.7728125 24.13671875 18.4128125 24.13671875 21.1328125 C21.21185545 21.97473032 18.62930219 22.25100563 15.58984375 22.23046875 C14.74550781 22.22724609 13.90117187 22.22402344 13.03125 22.22070312 C12.15855469 22.21232422 11.28585937 22.20394531 10.38671875 22.1953125 C9.49855469 22.19080078 8.61039062 22.18628906 7.6953125 22.18164062 C5.50904546 22.1698865 3.32291696 22.15345499 1.13671875 22.1328125 C0.80671875 23.1228125 0.47671875 24.1128125 0.13671875 25.1328125 C0.95076172 24.88917969 0.95076172 24.88917969 1.78125 24.640625 C9.26817478 23.02652845 17.62349307 24.02430379 25.13671875 25.1328125 C26.13671875 26.1328125 26.13671875 26.1328125 26.13671875 34.1328125 C13.92671875 34.1328125 1.71671875 34.1328125 -10.86328125 34.1328125 C-11.7154874 29.87178175 -11.91766274 26.78942873 -11.7421875 22.51953125 C-11.69384766 21.27236328 -11.64550781 20.02519531 -11.59570312 18.74023438 C-11.53962891 17.44666016 -11.48355469 16.15308594 -11.42578125 14.8203125 C-11.37357422 13.50740234 -11.32136719 12.19449219 -11.26757812 10.84179688 C-11.13811485 7.60521511 -11.00315583 4.36895829 -10.86328125 1.1328125 C-7.20395381 0.46543176 -3.71928182 0.00530298 0 0 Z " fill="#ECECEC" transform="translate(345.86328125,465.8671875)"/>
<path d="M0 0 C11.55 0 23.1 0 35 0 C36 6 36 6 35 10 C26.75 10 18.5 10 10 10 C10.33 10.66 10.66 11.32 11 12 C18.92 12.33 26.84 12.66 35 13 C35 15.64 35 18.28 35 21 C31.99984088 22.00005304 30.02576244 22.11575585 26.89453125 22.09765625 C25.91162109 22.09443359 24.92871094 22.09121094 23.91601562 22.08789062 C22.89185547 22.07951172 21.86769531 22.07113281 20.8125 22.0625 C19.25885742 22.05573242 19.25885742 22.05573242 17.67382812 22.04882812 C15.11582734 22.0370401 12.55794267 22.02058515 10 22 C10 22.99 10 23.98 10 25 C18.58 25 27.16 25 36 25 C36 27.97 36 30.94 36 34 C24.12 34 12.24 34 0 34 C0 22.78 0 11.56 0 0 Z " fill="#F0F0F0" transform="translate(130,466)"/>
<path d="M0 0 C3.63 0 7.26 0 11 0 C11 10.89 11 21.78 11 33 C7.37 33 3.74 33 0 33 C0 22.11 0 11.22 0 0 Z " fill="#F0F0F0" transform="translate(268,467)"/>
<path d="M0 0 C0.33 0 0.66 0 1 0 C1 3.63 1 7.26 1 11 C1.99 11 2.98 11 4 11 C3.34 12.32 2.68 13.64 2 15 C1.34 14.67 0.68 14.34 0 14 C0 9.38 0 4.76 0 0 Z " fill="#AAAAAA" transform="translate(116,194)"/>
<path d="M0 0 C0 0.66 0 1.32 0 2 C-2.5 3.625 -2.5 3.625 -5 5 C-5 4.01 -5 3.02 -5 2 C-6.98 2.33 -8.96 2.66 -11 3 C-7.11595442 0.41063628 -4.5725325 -0.12358196 0 0 Z " fill="#919191" transform="translate(239,70)"/>
<path d="M0 0 C0.33 1.32 0.66 2.64 1 4 C-1.4375 6.75 -1.4375 6.75 -4 9 C-4.66 8.67 -5.32 8.34 -6 8 C-4.02 5.36 -2.04 2.72 0 0 Z " fill="#BABABA" transform="translate(107,71)"/>
<path d="M0 0 C1.98 0 3.96 0 6 0 C5.01 0.495 5.01 0.495 4 1 C4 2.32 4 3.64 4 5 C3.34 5 2.68 5 2 5 C2 4.34 2 3.68 2 3 C1.34 3 0.68 3 0 3 C0 2.01 0 1.02 0 0 Z " fill="#949494" transform="translate(257,113)"/>
</svg>
